<svg width="18" height="18" viewBox="0 0 18 18" fill="none" xmlns="http://www.w3.org/2000/svg">
<path fill-rule="evenodd" clip-rule="evenodd" d="M9.55524 13.8031L11.3307 12.0276C11.6733 11.685 12.2124 11.6373 12.6098 11.9145L14.958 13.5522C15.4155 13.8714 15.4735 14.5265 15.079 14.921C14.4424 15.5576 13.5283 15.834 12.6753 15.5463C11.0898 15.0116 8.42393 13.8556 6.19595 11.6276C3.96796 9.3996 2.81198 6.73375 2.27725 5.14823C1.98957 4.29523 2.26598 3.38109 2.90253 2.74455C3.29701 2.35006 3.95219 2.40799 4.27133 2.86558L5.90902 5.21371C6.18623 5.61118 6.13857 6.15021 5.79591 6.49287L4.02048 8.2683" fill="#1D1D1D"/>
<path d="M9.55524 13.8031L11.3307 12.0276C11.6733 11.685 12.2124 11.6373 12.6098 11.9145L14.958 13.5522C15.4155 13.8714 15.4735 14.5265 15.079 14.921V14.921C14.4424 15.5576 13.5283 15.834 12.6753 15.5463C11.0898 15.0116 8.42393 13.8556 6.19595 11.6276C3.96796 9.3996 2.81198 6.73375 2.27725 5.14823C1.98957 4.29523 2.26598 3.38109 2.90253 2.74455V2.74455C3.29701 2.35006 3.95219 2.40799 4.27133 2.86558L5.90902 5.21371C6.18623 5.61118 6.13857 6.15021 5.79591 6.49287L4.02048 8.2683" stroke="#1D1D1D" stroke-linecap="round"/>
</svg>
