<svg width="25" height="25" viewBox="0 0 25 25" fill="none" xmlns="http://www.w3.org/2000/svg">
<g clip-path="url(#clip0_552_5040)">
<path fill-rule="evenodd" clip-rule="evenodd" d="M20.2073 4.283C21.2596 3.83841 22.3879 4.73126 22.202 5.86165L20.0072 19.2133C19.7955 20.5007 18.3863 21.2393 17.2091 20.5978C16.2241 20.061 14.7626 19.2348 13.4454 18.3713C12.7877 17.94 10.7738 16.5574 11.0213 15.5731C11.233 14.7316 14.6186 11.5696 16.5533 9.68915C17.3133 8.95049 16.9672 8.52376 16.0697 9.20387C13.8432 10.891 10.2686 13.4561 9.08655 14.178C8.04361 14.8148 7.49907 14.9236 6.84953 14.8148C5.66343 14.6166 4.56376 14.3095 3.66597 13.9361C2.45255 13.4314 2.51165 11.7584 3.66515 11.2712L20.2073 4.283Z" fill="white"/>
</g>
<defs>
<clipPath id="clip0_552_5040">
<rect width="25" height="25" fill="white"/>
</clipPath>
</defs>
</svg>
