<svg width="25" height="25" viewBox="0 0 25 25" fill="none" xmlns="http://www.w3.org/2000/svg">
<path fill-rule="evenodd" clip-rule="evenodd" d="M13.2718 19.1706L15.968 16.4744C16.3107 16.1317 16.8497 16.0841 17.2472 16.3613L21.0153 18.9894C21.5258 19.3455 21.5905 20.0765 21.1503 20.5167L20.6654 21.0016C19.9551 21.7118 18.936 22.0193 17.9789 21.7143C15.8422 21.0334 11.8831 19.4261 8.60614 16.1491C5.32912 12.8721 3.72189 8.91303 3.04092 6.77629C2.73592 5.81926 3.04339 4.8001 3.75365 4.08983L4.23857 3.60492C4.67874 3.16475 5.40979 3.22939 5.76589 3.73997L8.39394 7.50808C8.67116 7.90555 8.62349 8.44459 8.28084 8.78725L5.58466 11.4834" fill="white"/>
<path d="M13.2718 19.1706L15.968 16.4744C16.3107 16.1317 16.8497 16.0841 17.2472 16.3613L21.0153 18.9894C21.5258 19.3455 21.5905 20.0765 21.1503 20.5167L20.6654 21.0016C19.9551 21.7118 18.936 22.0193 17.9789 21.7143C15.8422 21.0334 11.8831 19.4261 8.60614 16.1491C5.32912 12.8721 3.72189 8.91303 3.04092 6.77629C2.73592 5.81926 3.04339 4.80009 3.75365 4.08983L4.23857 3.60492C4.67874 3.16475 5.40979 3.22939 5.76589 3.73997L8.39394 7.50808C8.67116 7.90555 8.62349 8.44459 8.28083 8.78724L5.58466 11.4834" stroke="white" stroke-linecap="round"/>
</svg>
