<svg width="142" height="27" viewBox="0 0 142 27" fill="none" xmlns="http://www.w3.org/2000/svg">
<path d="M20.4466 14.5178C20.1285 16.5748 20.4363 18.6799 21.33 20.5597C22.2237 22.4395 23.662 24.0072 25.458 25.0591C27.2541 26.111 29.325 26.5985 31.4017 26.4584C33.4784 26.3182 35.465 25.5569 37.1034 24.2732C38.7419 22.9895 39.9565 21.2428 40.5895 19.26C41.2225 17.2771 41.2446 15.1498 40.6531 13.1542C40.0615 11.1586 38.8836 9.38695 37.2722 8.06942C35.6608 6.75189 33.6905 5.94932 31.6172 5.76594L31.0748 11.8984C31.9183 11.973 32.7198 12.2995 33.3753 12.8354C34.0307 13.3714 34.5099 14.0921 34.7506 14.9039C34.9912 15.7157 34.9822 16.5811 34.7247 17.3877C34.4672 18.1943 33.9731 18.9049 33.3066 19.4271C32.6401 19.9492 31.8319 20.259 30.9872 20.316C30.1424 20.373 29.2999 20.1747 28.5693 19.7468C27.8387 19.3188 27.2536 18.6811 26.89 17.9164C26.5265 17.1517 26.4013 16.2954 26.5307 15.4586L20.4466 14.5178Z" fill="white"/>
<mask id="path-2-inside-1_552_4963" fill="white">
<path d="M41.0811 16.1038C41.0811 21.8355 36.4346 26.4819 30.7029 26.4819C24.9712 26.4819 20.3247 21.8355 20.3247 16.1038C20.3247 10.3721 24.9712 5.72559 30.7029 5.72559C36.4346 5.72559 41.0811 10.3721 41.0811 16.1038ZM26.4811 16.1038C26.4811 18.4354 28.3712 20.3256 30.7029 20.3256C33.0345 20.3256 34.9247 18.4354 34.9247 16.1038C34.9247 13.7721 33.0345 11.882 30.7029 11.882C28.3712 11.882 26.4811 13.7721 26.4811 16.1038Z"/>
</mask>
<path d="M41.0811 16.1038C41.0811 21.8355 36.4346 26.4819 30.7029 26.4819C24.9712 26.4819 20.3247 21.8355 20.3247 16.1038C20.3247 10.3721 24.9712 5.72559 30.7029 5.72559C36.4346 5.72559 41.0811 10.3721 41.0811 16.1038ZM26.4811 16.1038C26.4811 18.4354 28.3712 20.3256 30.7029 20.3256C33.0345 20.3256 34.9247 18.4354 34.9247 16.1038C34.9247 13.7721 33.0345 11.882 30.7029 11.882C28.3712 11.882 26.4811 13.7721 26.4811 16.1038Z" stroke="white" stroke-width="2" mask="url(#path-2-inside-1_552_4963)"/>
<rect x="1.50488" y="14" width="4.59556" height="11.5991" fill="white"/>
<path d="M1 25.2662C1 25.5423 1.22386 25.7662 1.5 25.7662H6.22589C6.50203 25.7662 6.72589 25.5423 6.72589 25.2662V14.3144H1V25.2662Z" fill="white"/>
<path d="M1 14.3144V25.2662C1 25.5423 1.22386 25.7662 1.5 25.7662H6.22589C6.50203 25.7662 6.72589 25.5423 6.72589 25.2662V14.3144M1 14.3144V6.22559C1 5.94944 1.22386 5.72559 1.5 5.72559H17.6777C17.9538 5.72559 18.1777 5.94944 18.1777 6.22559V25.2662C18.1777 25.5423 17.9538 25.7662 17.6777 25.7662H12.9518C12.6756 25.7662 12.4518 25.5423 12.4518 25.2662V11.2357C12.4518 10.9596 12.2279 10.7357 11.9518 10.7357H7.22589C6.94975 10.7357 6.72589 10.9596 6.72589 11.2357V14.3144M1 14.3144H6.72589" stroke="white"/>
<path d="M43.2285 15.8138C43.2285 14.5541 43.4637 13.3235 43.9339 12.1219C44.4042 10.901 45.0901 9.79639 45.9915 8.80803C46.8928 7.81967 47.9902 7.0348 49.2835 6.45341C50.5768 5.85264 52.0464 5.55226 53.6924 5.55226C55.6519 5.55226 57.3469 5.96892 58.7774 6.80224C60.0852 7.55382 61.0901 8.51032 61.7923 9.67175C61.9232 9.88842 61.8538 10.1663 61.6455 10.3102L58.8113 12.2679C58.5509 12.4477 58.1928 12.3418 58.036 12.0669C57.7634 11.5891 57.4325 11.2005 57.0432 10.901C56.5337 10.4941 55.9655 10.2131 55.3384 10.058C54.731 9.8836 54.1431 9.79639 53.5748 9.79639C52.6539 9.79639 51.8505 9.9805 51.1646 10.3487C50.4788 10.6975 49.9105 11.1723 49.4598 11.7731C49.0091 12.3739 48.676 13.0425 48.4605 13.7789C48.2449 14.5153 48.1371 15.2518 48.1371 15.9882C48.1371 16.8021 48.2645 17.587 48.5192 18.3428C48.774 19.0986 49.1365 19.7672 49.6068 20.3486C50.0967 20.93 50.6845 21.3951 51.3704 21.7439C52.0562 22.0734 52.8106 22.2381 53.6336 22.2381C54.2215 22.2381 54.8191 22.1412 55.4266 21.9474C56.034 21.7536 56.5925 21.4532 57.102 21.0463C57.4886 20.7347 57.8072 20.3559 58.0578 19.9098C58.207 19.6442 58.5428 19.5267 58.806 19.6802L61.8705 21.467C62.0857 21.5925 62.1778 21.8585 62.0669 22.0815C61.6491 22.9211 61.0327 23.6516 60.2176 24.273C59.2771 24.99 58.2091 25.5423 57.0138 25.9299C55.8381 26.2981 54.6722 26.4822 53.5161 26.4822C52.0072 26.4822 50.6159 26.1819 49.3423 25.5811C48.0882 24.9609 47.0006 24.147 46.0796 23.1393C45.1782 22.1121 44.4728 20.9687 43.9633 19.7091C43.4735 18.43 43.2285 17.1316 43.2285 15.8138Z" fill="white"/>
<path d="M80.5716 9.35453C80.5716 9.63067 80.3477 9.85453 80.0716 9.85453H74.7227C74.4466 9.85453 74.2227 10.0784 74.2227 10.3545V25.8078C74.2227 26.084 73.9988 26.3078 73.7227 26.3078H69.9023C69.6261 26.3078 69.4023 26.084 69.4023 25.8078V10.3545C69.4023 10.0784 69.1784 9.85453 68.9023 9.85453H63.524C63.2478 9.85453 63.024 9.63067 63.024 9.35453V6.16854C63.024 5.89239 63.2478 5.66854 63.524 5.66854H80.0716C80.3477 5.66854 80.5716 5.89239 80.5716 6.16854V9.35453Z" fill="white"/>
<path d="M83.4258 26.3078C83.1496 26.3078 82.9258 26.084 82.9258 25.8078V6.16854C82.9258 5.89239 83.1496 5.66854 83.4258 5.66854H91.8318C92.8312 5.66854 93.7424 5.87202 94.5654 6.27899C95.408 6.66659 96.133 7.19953 96.7405 7.87781C97.3479 8.53672 97.8182 9.28283 98.1513 10.1162C98.4844 10.9495 98.651 11.8022 98.651 12.6743C98.651 13.8564 98.3669 14.9804 97.7986 16.0463C97.2499 17.1122 96.4759 17.9843 95.4766 18.6626C94.4968 19.3215 93.3309 19.6509 91.9788 19.6509H88.2462C87.9701 19.6509 87.7462 19.8748 87.7462 20.1509V25.8078C87.7462 26.084 87.5224 26.3078 87.2462 26.3078H83.4258ZM87.7462 14.994C87.7462 15.2701 87.9701 15.494 88.2462 15.494H91.6849C92.0572 15.494 92.4001 15.3874 92.7136 15.1742C93.0272 14.9611 93.2819 14.6413 93.4778 14.2149C93.6738 13.7886 93.7718 13.2653 93.7718 12.6452C93.7718 12.0057 93.6542 11.4824 93.4191 11.0754C93.2035 10.6491 92.9194 10.339 92.5667 10.1452C92.2335 9.95143 91.8808 9.85453 91.5085 9.85453H88.2462C87.9701 9.85453 87.7462 10.0784 87.7462 10.3545V14.994Z" fill="white"/>
<path d="M110.38 26.4822C108.813 26.4822 107.392 26.1915 106.118 25.6102C104.864 25.0094 103.777 24.2148 102.856 23.2265C101.954 22.2187 101.259 21.0947 100.769 19.8544C100.279 18.5947 100.034 17.2963 100.034 15.9591C100.034 14.5832 100.289 13.275 100.798 12.0347C101.327 10.7944 102.052 9.68981 102.973 8.72083C103.914 7.73247 105.021 6.95728 106.295 6.39527C107.568 5.83326 108.96 5.55226 110.468 5.55226C112.016 5.55226 113.417 5.85264 114.672 6.45341C115.945 7.0348 117.033 7.82936 117.934 8.8371C118.855 9.84484 119.561 10.9785 120.05 12.2382C120.54 13.4785 120.785 14.7479 120.785 16.0463C120.785 17.4223 120.531 18.7304 120.021 19.9707C119.512 21.211 118.787 22.3253 117.846 23.3137C116.905 24.2827 115.798 25.0578 114.525 25.6392C113.27 26.2012 111.889 26.4822 110.38 26.4822ZM104.942 16.0173C104.942 16.8118 105.06 17.587 105.295 18.3428C105.53 19.0792 105.873 19.7381 106.324 20.3195C106.794 20.9009 107.372 21.366 108.058 21.7149C108.744 22.0637 109.528 22.2381 110.41 22.2381C111.331 22.2381 112.134 22.0637 112.82 21.7149C113.506 21.3466 114.074 20.8622 114.525 20.2614C114.975 19.6606 115.308 18.992 115.524 18.2556C115.759 17.4998 115.877 16.7343 115.877 15.9591C115.877 15.1645 115.759 14.3991 115.524 13.6626C115.289 12.9262 114.936 12.2673 114.466 11.6859C113.996 11.0851 113.417 10.62 112.732 10.2906C112.046 9.96112 111.272 9.79639 110.41 9.79639C109.489 9.79639 108.685 9.97081 107.999 10.3196C107.333 10.6685 106.765 11.1433 106.295 11.744C105.844 12.3254 105.501 12.994 105.266 13.7498C105.05 14.4863 104.942 15.2421 104.942 16.0173Z" fill="white"/>
<path d="M124.188 26.3078C123.912 26.3078 123.688 26.084 123.688 25.8078V6.16854C123.688 5.89239 123.912 5.66854 124.188 5.66854H128.009C128.285 5.66854 128.509 5.89239 128.509 6.16854V17.845C128.509 18.343 129.157 18.5349 129.428 18.1171L137.355 5.89644C137.447 5.75431 137.605 5.66854 137.775 5.66854H141.5C141.776 5.66854 142 5.89239 142 6.16854V25.8078C142 26.084 141.776 26.3078 141.5 26.3078H137.68C137.404 26.3078 137.18 26.084 137.18 25.8078V14.2283C137.18 13.7295 136.529 13.5382 136.259 13.9575L128.451 26.0786C128.359 26.2215 128.2 26.3078 128.03 26.3078H124.188ZM132.859 4.5639C131.703 4.5639 130.674 4.3701 129.773 3.98251C128.891 3.57554 128.205 3.03291 127.715 2.35462C127.321 1.79266 127.085 1.17412 127.008 0.498995C126.977 0.22462 127.204 0 127.48 0H129.684C129.96 0 130.177 0.227016 130.242 0.495474C130.335 0.882656 130.541 1.24075 130.86 1.56975C131.311 2.01548 131.977 2.23834 132.859 2.23834C133.741 2.23834 134.407 2.02517 134.858 1.59882C135.2 1.28799 135.418 0.920512 135.511 0.496382C135.57 0.226635 135.787 0 136.063 0H138.267C138.543 0 138.77 0.224621 138.739 0.498995C138.662 1.17412 138.427 1.79266 138.032 2.35462C137.542 3.03291 136.847 3.57554 135.945 3.98251C135.063 4.3701 134.035 4.5639 132.859 4.5639Z" fill="white"/>
</svg>
