<svg width="59" height="37" viewBox="0 0 59 37" fill="none" xmlns="http://www.w3.org/2000/svg">
<path d="M5.61914 15.459L42.9858 1C50.2062 1 54.7974 8.72464 51.3467 15.0671L50.0096 17.5246L14.3287 34.0493L5.61914 15.459Z" fill="#001960" stroke="white"/>
<path d="M15.0269 23.1564C16.0285 25.8411 16.2828 28.4694 15.9081 30.5381C15.531 32.6204 14.5434 34.0375 13.1541 34.5135C11.7649 34.9895 10.0637 34.4938 8.39444 33.1126C6.73604 31.7404 5.19388 29.5535 4.1923 26.8688C3.19072 24.1841 2.93643 21.5558 3.31111 19.4871C3.68823 17.4047 4.67586 15.9877 6.0651 15.5117C7.45434 15.0357 9.15555 15.5314 10.8248 16.9126C12.4832 18.2848 14.0254 20.4717 15.0269 23.1564Z" fill="#001960" stroke="white"/>
<path d="M13.4279 23.714C14.2547 25.9303 14.5172 28.0772 14.2952 29.746C14.0697 31.4405 13.3736 32.5024 12.4298 32.8258C11.486 33.1492 10.2452 32.751 8.94969 31.5775C7.67398 30.422 6.45664 28.6023 5.62979 26.3859C4.80293 24.1696 4.54044 22.0227 4.76248 20.354C4.98797 18.6594 5.68407 17.5975 6.62788 17.2741C7.57169 16.9507 8.81251 17.349 10.108 18.5224C11.3837 19.678 12.601 21.4977 13.4279 23.714Z" fill="#001960" stroke="white"/>
</svg>
