<svg width="61" height="38" viewBox="0 0 61 38" fill="none" xmlns="http://www.w3.org/2000/svg">
<path d="M16.653 17.0718H22.6735M38.3259 17.0718H44.3464M16.653 31.4712H22.6735M38.3259 31.4712H44.3464M16.6534 19V5.62857L8.82669 1L1 5.62857V37H16.6534V29.5M16.6534 19H22.673M16.6534 19V29.5M22.673 19V5.62857L30.4997 1L38.3264 5.62857V19M22.673 19V29.5M38.3264 19H44.3466M38.3264 19V29.5M44.3466 19V5.62857L52.1733 1L60 5.62857V37H44.3466V29.5M44.3466 19V29.5M44.3466 29.5H38.3264M38.3264 29.5V37H22.673V29.5M22.673 29.5H16.6534" stroke="white"/>
</svg>
