<svg width="61" height="39" viewBox="0 0 61 39" fill="none" xmlns="http://www.w3.org/2000/svg">
<path d="M60 1.24591H1V8.70381C1 11.4497 3.58973 13.6757 6.78431 13.6757H54.2157M60 1.24591V8.70381C60 11.4497 57.4103 13.6757 54.2157 13.6757M60 1.24591H46.6961V8.70381C46.6961 11.4497 49.2858 13.6757 52.4804 13.6757H54.2157M20.806 13.6757L20.806 17.1268C20.806 19.5224 22.2392 21.7497 24.6 23.023L31.762 26.8856C34.1228 28.1589 35.556 30.3862 35.556 32.7818V37.541M35.556 37.541H29.3186C28.2141 37.541 27.3186 36.6456 27.3186 35.541V33.8304C27.3186 31.491 25.9514 29.3079 23.6793 28.0198L17.3648 24.4399C15.0928 23.1518 13.7255 20.9688 13.7255 18.6293V13.6757H22.402V16.2893C22.402 18.6849 23.8351 20.9122 26.196 22.1855L33.358 26.0481C35.7188 27.3214 37.152 29.5487 37.152 31.9443V35.3376C37.152 35.9635 36.8589 36.5533 36.3602 36.9314L35.556 37.541ZM37.152 1.24591V8.7038C37.152 11.4497 39.7417 13.6757 42.9363 13.6757M47.905 1.24591V8.70381C47.905 11.4497 50.3154 12.7394 53.51 12.7394C56.7046 12.7394 58.82 11.4497 58.82 8.70381V1.24591" stroke="#001960"/>
</svg>
