<svg width="61" height="38" viewBox="0 0 61 38" fill="none" xmlns="http://www.w3.org/2000/svg">
<path d="M4.55779 28.936L1.37157 36.1578C1.19659 36.5544 1.48703 37 1.92052 37H52.5879M4.55779 28.936H1.88499C1.46084 28.936 1.1706 28.5079 1.32761 28.1139L4.55779 20.008M4.55779 28.936H52.5879M52.5879 37H59.4C59.7314 37 60 36.7314 60 36.4V1.6C60 1.26863 59.7314 1 59.4 1H55.5528M52.5879 37L55.256 29.743C55.4 29.3514 55.1102 28.936 54.6929 28.936H52.5879M4.55779 20.008H1.85638C1.44007 20.008 1.15028 19.5944 1.29245 19.2031L4.55779 10.216M4.55779 20.008H52.5879M52.5879 28.936L55.2907 20.7971C55.4197 20.4087 55.1305 20.008 54.7213 20.008H52.5879M4.55779 10.216H1.87478C1.4534 10.216 1.16329 9.79303 1.31505 9.39992L4.40958 1.38392C4.49889 1.15257 4.72133 1 4.96932 1H55.5528M4.55779 10.216H52.5879M52.5879 20.008L55.3184 10.9899C55.4351 10.6046 55.1467 10.216 54.7442 10.216H52.5879M52.5879 10.216L55.5528 1" stroke="white"/>
</svg>
