<svg width="61" height="38" viewBox="0 0 61 38" fill="none" xmlns="http://www.w3.org/2000/svg">
<path d="M3.98315 10.2835V19.3991L9.45225 22.3364M3.98315 10.2835L11.6482 13.3921M3.98315 10.2835L40.4853 1L47.3631 2.72229M11.6482 23.5158V13.3921M11.6482 23.5158L9.45225 22.3364M11.6482 23.5158L13.1812 22.8436M11.6482 13.3921L47.3631 2.72229M47.3631 2.72229V6.75496M47.3631 6.75496L13.1812 17.5928M47.3631 6.75496L52.4593 5.2007L56.9754 6.75496M13.1812 17.5928L18.6088 19.9031M13.1812 17.5928V22.8436M18.6088 27.3384L13.1812 24.3139V22.8436M18.6088 27.3384V19.9031M18.6088 27.3384L54.6138 12.6737M18.6088 19.9031L56.9754 6.75496M56.9754 6.75496V11.7118L54.6138 12.6737M9.45225 22.3364L1 24.944M1 24.944V27.3384L13.9684 34.7316M1 24.944L13.9684 32.1272M13.9684 34.7316V32.1272M13.9684 34.7316L16.9101 33.4711M13.9684 32.1272L57.8869 14.0642M57.8869 14.0642L54.6138 12.6737M57.8869 14.0642V15.9125L56.5197 16.4984M19.1475 32.5124L22.6278 34.5216M19.1475 32.5124L16.9101 33.4711M19.1475 32.5124L56.5197 16.4984M22.6278 34.5216V37M22.6278 34.5216L60 17.8448M22.6278 37L16.9101 33.4711M22.6278 37L60 19.3991V17.8448M60 17.8448L56.5197 16.4984" stroke="white"/>
</svg>
