<svg width="60" height="38" viewBox="0 0 60 38" fill="none" xmlns="http://www.w3.org/2000/svg">
<path d="M55.4381 26.8644L43.5773 1M43.5773 1H30.3479M43.5773 1L40.0071 8.83291M60 35.6961H27.7629M27.7629 35.6961L32.0999 26.181M27.7629 35.6961C27.7629 35.6961 25.1423 37.1956 23.42 36.8526C22.4144 36.6524 21.0722 35.6961 21.0722 35.6961M30.3479 1H23.7332M30.3479 1L26.8885 8.51749M14.3814 35.6961L19.3891 24.8141M14.3814 35.6961C14.3814 35.6961 11.6239 37.288 9.85 36.8526C8.91784 36.6238 7.69072 35.6961 7.69072 35.6961M14.3814 35.6961C14.3814 35.6961 15.4864 36.5958 16.34 36.8526C18.1607 37.4005 21.0722 35.6961 21.0722 35.6961M23.7332 1H20.947C18.6121 1 16.4893 2.35454 15.5056 4.47209L1 35.6961C1 35.6961 1.99037 36.5714 2.77 36.8526C4.62454 37.5216 7.69072 35.6961 7.69072 35.6961M23.7332 1L20.308 8.51749M11.1107 13.9322H17.8409M21.0722 35.6961L25.2757 26.181M36.4 1L32.9396 8.83291M17.8409 13.9322L20.308 8.51749M17.8409 13.9322L12.7658 24.8141M26.8885 8.51749H20.308M26.8885 8.51749L23.1388 16.6658M7.69072 35.6961L12.7658 24.8141M12.7658 24.8141H19.3891M19.3891 24.8141L23.1388 16.6658M23.1388 16.6658H29.4793M29.4793 16.6658L32.9396 8.83291M29.4793 16.6658L25.2757 26.181M32.9396 8.83291H40.0071M40.0071 8.83291L32.0999 26.181M25.2757 26.181H32.0999M32.86 32.5156L41.7344 12.6442C42.4423 11.059 44.6951 11.0667 45.3922 12.6566L54.1 32.5156H32.86Z" stroke="#001960"/>
</svg>
