<svg width="61" height="39" viewBox="0 0 61 39" fill="none" xmlns="http://www.w3.org/2000/svg">
<path d="M60 1.24609H1V8.70399C1 11.4499 3.58973 13.6759 6.78431 13.6759H54.2157M60 1.24609V8.70399C60 11.4499 57.4103 13.6759 54.2157 13.6759M60 1.24609H46.6961V8.70399C46.6961 11.4499 49.2858 13.6759 52.4804 13.6759H54.2157M20.806 13.6759L20.806 17.127C20.806 19.5226 22.2392 21.7499 24.6 23.0231L31.762 26.8858C34.1228 28.1591 35.556 30.3863 35.556 32.782V37.5412M35.556 37.5412H29.3186C28.2141 37.5412 27.3186 36.6457 27.3186 35.5412V33.8306C27.3186 31.4911 25.9514 29.3081 23.6793 28.02L17.3648 24.4401C15.0928 23.152 13.7255 20.9689 13.7255 18.6295V13.6759H22.402V16.2895C22.402 18.6851 23.8351 20.9124 26.196 22.1856L33.358 26.0483C35.7188 27.3216 37.152 29.5488 37.152 31.9445V35.3378C37.152 35.9637 36.8589 36.5535 36.3602 36.9316L35.556 37.5412ZM37.152 1.24609V8.70399C37.152 11.4499 39.7417 13.6759 42.9363 13.6759M47.905 1.24609V8.70399C47.905 11.4499 50.3154 12.7395 53.51 12.7395C56.7046 12.7395 58.82 11.4499 58.82 8.70399V1.24609" stroke="white"/>
</svg>
