<svg width="61" height="38" viewBox="0 0 61 38" fill="none" xmlns="http://www.w3.org/2000/svg">
<path d="M1 18.734L35.1579 3.05737L60 15.0079M1 18.734V21.8472L26.2158 37.0002M1 18.734L26.2158 33.2657M60 15.0079V18.734L26.2158 37.0002M60 15.0079L26.2158 33.2657M26.2158 37.0002V33.2657" stroke="#001960"/>
<path d="M54.1004 13.5413V10.5604L27.073 25.1667V28.1543L54.1004 13.5413Z" fill="white"/>
<path d="M6.90039 16.0318L27.073 28.1543V25.1667L6.90039 13.5413V16.0318Z" fill="white"/>
<path d="M34.2267 1L6.90039 13.5413L27.073 25.1667L54.1004 10.5604L34.2267 1Z" fill="white"/>
<path d="M6.90039 13.5413L34.2267 1L54.1004 10.5604M6.90039 13.5413V16.0318L27.073 28.1543M6.90039 13.5413L27.073 25.1667M54.1004 10.5604V13.5413L27.073 28.1543M54.1004 10.5604L27.073 25.1667M27.073 28.1543V25.1667" stroke="#001960"/>
</svg>
