<svg width="61" height="38" viewBox="0 0 61 38" fill="none" xmlns="http://www.w3.org/2000/svg">
<path d="M1 18.7342L35.1579 3.05762L60 15.0081M1 18.7342V21.8474L26.2158 37.0005M1 18.7342L26.2158 33.266M60 15.0081V18.7342L26.2158 37.0005M60 15.0081L26.2158 33.266M26.2158 37.0005V33.266" stroke="white"/>
<path d="M54.0999 13.5413V10.5604L27.0725 25.1667V28.1543L54.0999 13.5413Z" fill="#001960"/>
<path d="M6.8999 16.0318L27.0725 28.1543V25.1667L6.8999 13.5413V16.0318Z" fill="#001960"/>
<path d="M34.2262 1L6.8999 13.5413L27.0725 25.1667L54.0999 10.5604L34.2262 1Z" fill="#001960"/>
<path d="M6.8999 13.5413L34.2262 1L54.0999 10.5604M6.8999 13.5413V16.0318L27.0725 28.1543M6.8999 13.5413L27.0725 25.1667M54.0999 10.5604V13.5413L27.0725 28.1543M54.0999 10.5604L27.0725 25.1667M27.0725 28.1543V25.1667" stroke="white"/>
</svg>
