<svg width="59" height="37" viewBox="0 0 59 37" fill="none" xmlns="http://www.w3.org/2000/svg">
<path d="M5.61914 15.459L42.9858 1C50.2062 1 54.7974 8.72464 51.3467 15.0671L50.0096 17.5246L14.3287 34.0493L5.61914 15.459Z" fill="white" stroke="#001960"/>
<path d="M15.0269 23.1562C16.0285 25.8409 16.2828 28.4692 15.9081 30.538C15.531 32.6203 14.5434 34.0373 13.1541 34.5133C11.7649 34.9893 10.0637 34.4936 8.39444 33.1124C6.73604 31.7403 5.19388 29.5533 4.1923 26.8686C3.19072 24.1839 2.93643 21.5557 3.31111 19.4869C3.68823 17.4046 4.67586 15.9876 6.0651 15.5115C7.45434 15.0355 9.15555 15.5312 10.8248 16.9124C12.4832 18.2846 14.0254 20.4716 15.0269 23.1562Z" fill="white" stroke="#001960"/>
<path d="M13.4279 23.7138C14.2547 25.9301 14.5172 28.077 14.2952 29.7457C14.0697 31.4403 13.3736 32.5022 12.4298 32.8256C11.486 33.1489 10.2452 32.7507 8.94969 31.5773C7.67398 30.4217 6.45664 28.602 5.62979 26.3857C4.80293 24.1693 4.54044 22.0225 4.76248 20.3537C4.98797 18.6592 5.68407 17.5973 6.62788 17.2739C7.57169 16.9505 8.81251 17.3487 10.108 18.5222C11.3837 19.6777 12.601 21.4974 13.4279 23.7138Z" fill="white" stroke="#001960"/>
</svg>
