<svg width="35" height="35" viewBox="0 0 35 35" fill="none" xmlns="http://www.w3.org/2000/svg">
<path d="M4 25H1.5C1.22386 25 1 24.7761 1 24.5V7.5C1 7.22386 1.22386 7 1.5 7H22.5C22.7761 7 23 7.22386 23 7.5V25H10" stroke="#001960" stroke-width="2" stroke-linecap="round"/>
<path d="M31 25H33.5C33.7761 25 34 24.7761 34 24.5V17.8947C34 17.8178 33.9823 17.7419 33.9482 17.673L31.2805 12.2784C31.1962 12.1079 31.0225 12 30.8323 12H23V25H25" stroke="#001960" stroke-width="2" stroke-linecap="round"/>
<ellipse cx="6.91667" cy="24.7917" rx="2.91667" ry="2.91667" stroke="#001960" stroke-width="2"/>
<ellipse cx="27.9167" cy="24.7917" rx="2.91667" ry="2.91667" stroke="#001960" stroke-width="2"/>
</svg>
