<svg width="47" height="47" viewBox="0 0 47 47" fill="none" xmlns="http://www.w3.org/2000/svg">
<path d="M15 26.9606V23.3817H23.7889V26.9606H15ZM15 30.7465V28.7944H25.4311V30.7465H15ZM17.2504 34V13H25.127C26.1813 13 27.124 13.1972 27.9553 13.5915C28.8068 13.9859 29.5265 14.5183 30.1145 15.1887C30.7227 15.8592 31.189 16.6085 31.5134 17.4366C31.8378 18.2648 32 19.1127 32 19.9803C32 21.1634 31.7263 22.2873 31.1789 23.3521C30.6518 24.4169 29.8915 25.2845 28.898 25.9549C27.9046 26.6254 26.7084 26.9606 25.3095 26.9606H21.4168V34H17.2504ZM21.4168 23.3817H25.0358C25.6643 23.3817 26.1813 23.2437 26.5868 22.9676C26.9922 22.6915 27.2862 22.2972 27.4687 21.7845C27.6714 21.2521 27.7728 20.6507 27.7728 19.9803C27.7728 19.2507 27.6512 18.6296 27.4079 18.1169C27.1849 17.6042 26.8503 17.2197 26.4043 16.9634C25.9785 16.707 25.4615 16.5789 24.8533 16.5789H21.4168V23.3817Z" fill="#001960"/>
<circle cx="23.5" cy="23.5" r="21.5" stroke="#001960" stroke-width="4"/>
</svg>
