<svg width="28" height="28" viewBox="0 0 28 28" fill="none" xmlns="http://www.w3.org/2000/svg">
<path d="M5.00295 4.66811L5.87905 4.66746L6.6967 4.6665C7.29735 4.68103 7.70214 4.94711 7.91109 5.46475C8.00313 5.71888 8.06528 5.97236 8.09753 6.2252L8.32126 7.63111C8.32305 7.642 8.32966 7.64745 8.34108 7.64745L9.21416 7.64584L10.0274 7.64841L10.9133 7.64745L11.7269 7.64649H12.5876L13.4506 7.64713L14.2491 7.64649L15.0691 7.64713L15.9522 7.64617L16.741 7.64681L17.6534 7.64617L18.4159 7.64649H19.3172L20.1218 7.64745L20.9878 7.64649L21.7746 7.64713L22.656 7.64873C22.938 7.63677 23.2158 7.65012 23.4895 7.68877C23.7717 7.72721 24.0113 7.82875 24.2084 7.9934C24.4052 8.15804 24.5024 8.37715 24.5 8.6507C24.4959 8.90056 24.4321 9.10236 24.339 9.34709L22.825 13.47L22.7011 13.8102C22.3943 14.4893 21.9932 14.9633 21.1541 14.9851C20.5901 14.9995 19.9867 14.9835 19.4157 14.9883C18.7898 14.9938 18.164 14.9819 17.5388 14.9896C17.1677 14.9941 16.7968 14.9958 16.4259 14.9947C15.4629 14.9922 14.4999 14.9904 13.5369 14.9893C12.3732 14.988 11.2073 14.9883 10.0392 14.9903L9.83361 14.9883C9.82085 14.9883 9.81547 14.9943 9.81749 15.0063L10.097 16.6656L10.1118 16.8087C10.1129 16.8198 10.1193 16.8254 10.1309 16.8254C13.6121 16.8328 17.0934 16.8254 20.5746 16.8251C20.8304 16.8251 21.0378 16.8296 21.1968 16.8385C21.38 16.8639 21.5442 16.9247 21.6896 17.0208C21.836 17.1464 21.9212 17.2948 21.9452 17.466C21.9806 17.7308 21.9524 17.9734 21.8606 18.1938L21.7568 18.394C21.5438 18.6323 21.2807 18.6746 20.9663 18.6653L16.8864 18.6657H14.1244L13.4274 18.6653L12.5446 18.6657L11.7447 18.6653L10.8246 18.6657C10.4419 18.6654 10.0582 18.6649 9.67371 18.6641C8.89032 18.6625 8.47545 18.0388 8.24232 17.4186C8.14086 17.1327 8.07581 16.9097 8.04714 16.7498C7.96148 16.2716 7.84525 15.7674 7.75992 15.3231C7.59979 14.4902 7.43575 13.6584 7.26778 12.8277L7.07362 11.8248L6.91506 11.0185L6.27948 7.8422L6.11454 7.03434C6.1136 7.02986 6.11106 7.02584 6.10738 7.02297C6.1037 7.0201 6.0991 7.01857 6.09438 7.01865L5.8337 7.02153L4.96331 7.02185C4.5004 7.02153 4.09695 7.06221 3.7627 6.69192C3.66461 6.58333 3.52184 6.39177 3.50101 6.23834C3.50123 5.8879 3.5009 5.53768 3.5 5.18767C3.5 5.11186 3.52217 5.05004 3.56651 5.0022C3.74523 4.8098 3.95451 4.70153 4.19437 4.67739L5.00295 4.66811ZM8.9303 10.2245L9.51448 13.1141C9.51672 13.1248 9.52355 13.1301 9.53497 13.1301L10.0684 13.1311L10.8763 13.132L13.4056 13.1378L14.2447 13.1388L15.0781 13.1407L15.9277 13.1401H16.7638L17.602 13.1397L18.4697 13.1455L19.2951 13.1458L20.6905 13.1471C20.6988 13.1471 20.7069 13.1447 20.7137 13.1401C20.7206 13.1356 20.7258 13.1292 20.7288 13.1218L21.5733 10.9872L22.1619 9.4954C22.1677 9.48024 22.1621 9.47266 22.1451 9.47266C20.91 9.47031 19.6698 9.46625 18.4247 9.46048C18.4186 9.46604 18.4104 9.46721 18.4001 9.46401L17.5681 9.45664L15.0882 9.45248L14.2101 9.44767L11.6963 9.44191L10.7329 9.44127L10.0167 9.4355L9.19703 9.4323L8.78887 9.42813C8.77745 9.42813 8.77275 9.43347 8.77476 9.44415L8.9303 10.2245Z" fill="#001960"/>
<path d="M12.2489 20.2694L12.411 20.4387C12.9598 21.1104 12.9762 21.9781 12.447 22.6632L12.2094 22.9126C11.9386 23.134 11.648 23.268 11.3373 23.3145C10.4571 23.4465 9.64252 22.8765 9.39726 22.0251C9.23141 21.4501 9.39784 20.8476 9.79489 20.3907L10.0079 20.1933C10.6866 19.6926 11.6022 19.7113 12.2489 20.2694Z" fill="#001960"/>
<path d="M19.9377 19.9646C20.4679 20.198 20.8088 20.6057 20.9606 21.1877C21.0077 21.4175 21.0126 21.6523 20.9752 21.892C20.8301 22.5233 20.4676 22.9625 19.8876 23.2096C18.5221 23.7494 17.1297 22.4348 17.5896 21.0241C17.9158 20.0228 18.9862 19.5958 19.9377 19.9646Z" fill="#001960"/>
</svg>
