<svg width="28" height="28" viewBox="0 0 28 28" fill="none" xmlns="http://www.w3.org/2000/svg">
<path d="M10.7957 20.0004L11.0544 19.0344C10.8182 18.9712 10.5671 18.9967 10.3485 19.106L10.7957 20.0004ZM6.4632 22.1666L5.47325 22.0252C5.42065 22.3934 5.57675 22.7604 5.87849 22.9779C6.18022 23.1954 6.57773 23.2274 6.91041 23.0611L6.4632 22.1666ZM7.0499 18.0598L8.03984 18.2012C8.08794 17.8645 7.96162 17.5264 7.70451 17.3038L7.0499 18.0598ZM13.6485 21.3704C18.9414 21.3704 23.63 17.9025 23.63 13.1852H21.63C21.63 16.4045 18.2764 19.3704 13.6485 19.3704V21.3704ZM10.537 20.9664C11.5182 21.2291 12.5645 21.3704 13.6485 21.3704V19.3704C12.7381 19.3704 11.8658 19.2517 11.0544 19.0344L10.537 20.9664ZM6.91041 23.0611L11.2429 20.8948L10.3485 19.106L6.01598 21.2722L6.91041 23.0611ZM6.05995 17.9183L5.47325 22.0252L7.45315 22.3081L8.03984 18.2012L6.05995 17.9183ZM3.66699 13.1852C3.66699 15.405 4.73617 17.379 6.39528 18.8157L7.70451 17.3038C6.40534 16.1788 5.66699 14.728 5.66699 13.1852H3.66699ZM13.6485 5C8.35564 5 3.66699 8.46795 3.66699 13.1852H5.66699C5.66699 9.96592 9.02068 7 13.6485 7V5ZM23.63 13.1852C23.63 8.46795 18.9414 5 13.6485 5V7C18.2764 7 21.63 9.96592 21.63 13.1852H23.63Z" fill="#001960"/>
</svg>
