<svg width="22" height="22" viewBox="0 0 22 22" fill="none" xmlns="http://www.w3.org/2000/svg">
<path d="M4.18265 3.30569L4.81853 3.30515L5.41199 3.30434C5.84794 3.31652 6.14174 3.53963 6.29339 3.97368C6.3602 4.18677 6.40531 4.39932 6.42871 4.61133L6.5911 5.79019C6.5924 5.79933 6.59719 5.80389 6.60548 5.80389L7.23917 5.80255L7.82946 5.8047L8.47241 5.80389L9.06294 5.80309H9.68761L10.314 5.80362L10.8935 5.80309L11.4887 5.80362L12.1297 5.80282L12.7022 5.80336L13.3644 5.80282L13.9179 5.80309H14.5721L15.156 5.80389L15.7846 5.80309L16.3556 5.80362L16.9954 5.80497C17.2 5.79494 17.4017 5.80613 17.6003 5.83854C17.8051 5.87077 17.979 5.95592 18.1221 6.09398C18.2649 6.23203 18.3355 6.41575 18.3337 6.64513C18.3308 6.85464 18.2844 7.02385 18.2169 7.22906L17.118 10.6861L17.028 10.9714C16.8054 11.5408 16.5143 11.9383 15.9053 11.9566C15.4959 11.9687 15.058 11.9553 14.6435 11.9593C14.1893 11.9639 13.735 11.9539 13.2813 11.9604C13.0119 11.9641 12.7427 11.9656 12.4735 11.9647C11.7745 11.9625 11.0756 11.961 10.3766 11.9601C9.53205 11.959 8.68583 11.9593 7.83799 11.9609L7.68877 11.9593C7.67951 11.9593 7.67561 11.9643 7.67707 11.9743L7.87993 13.3657L7.89066 13.4857C7.89147 13.495 7.8961 13.4997 7.90455 13.4997C10.4313 13.5059 12.958 13.4997 15.4847 13.4994C15.6703 13.4994 15.8208 13.5032 15.9362 13.5107C16.0692 13.532 16.1884 13.5829 16.2939 13.6635C16.4002 13.7688 16.4621 13.8933 16.4795 14.0369C16.5051 14.2589 16.4847 14.4623 16.418 14.6471L16.3427 14.815C16.1881 15.0148 15.9972 15.0503 15.769 15.0425L12.8078 15.0428H10.8031L10.2972 15.0425L9.6564 15.0428L9.07586 15.0425L8.40804 15.0428C8.13025 15.0426 7.85181 15.0421 7.57272 15.0414C7.00413 15.0401 6.70301 14.5171 6.5338 13.9971C6.46017 13.7574 6.41295 13.5704 6.39214 13.4363C6.32997 13.0353 6.24561 12.6125 6.18368 12.24C6.06745 11.5416 5.94839 10.8442 5.82648 10.1476L5.68555 9.30664L5.57047 8.63059L5.10916 5.9672L4.98945 5.2898C4.98876 5.28604 4.98692 5.28267 4.98425 5.28026C4.98158 5.27786 4.97824 5.27658 4.97482 5.27664L4.78561 5.27906L4.15388 5.27933C3.81789 5.27906 3.52506 5.31317 3.28246 5.00267C3.21127 4.91162 3.10765 4.751 3.09253 4.62234C3.09269 4.3285 3.09245 4.03483 3.0918 3.74135C3.0918 3.67778 3.10789 3.62594 3.14007 3.58583C3.26979 3.4245 3.42168 3.33371 3.59577 3.31348L4.18265 3.30569ZM7.03314 7.96474L7.45715 10.3877C7.45877 10.3967 7.46373 10.4012 7.47202 10.4012L7.8592 10.402L8.44559 10.4028L10.2813 10.4076L10.8904 10.4084L11.4953 10.41L12.1119 10.4095H12.7188L13.3271 10.4092L13.9569 10.4141L14.556 10.4143L15.5688 10.4154C15.5748 10.4154 15.5807 10.4134 15.5856 10.4096C15.5906 10.4058 15.5944 10.4004 15.5966 10.3942L16.2095 8.60427L16.6367 7.35342C16.6409 7.3407 16.6369 7.33435 16.6245 7.33435C15.7281 7.33238 14.828 7.32898 13.9242 7.32414C13.9198 7.3288 13.9139 7.32978 13.9064 7.3271L13.3025 7.32092L11.5026 7.31743L10.8653 7.3134L9.04075 7.30856L8.34148 7.30803L7.82166 7.30319L7.22674 7.30051L6.9305 7.29701C6.92221 7.29701 6.91879 7.30149 6.92025 7.31044L7.03314 7.96474Z" fill="white"/>
<path d="M9.27592 16.1427L9.39864 16.2846C9.8143 16.8479 9.82673 17.5754 9.42594 18.1499L9.24596 18.3591C9.0409 18.5447 8.82075 18.657 8.58552 18.696C7.91886 18.8067 7.30191 18.3288 7.11616 17.6149C6.99055 17.1328 7.11661 16.6275 7.41731 16.2444L7.57865 16.0789C8.09262 15.659 8.78613 15.6747 9.27592 16.1427Z" fill="white"/>
<path d="M15.5411 15.8871C15.9426 16.0828 16.2008 16.4247 16.3157 16.9127C16.3514 17.1054 16.3551 17.3023 16.3268 17.5033C16.2169 18.0326 15.9424 18.4009 15.5031 18.608C14.4689 19.0607 13.4144 17.9584 13.7627 16.7755C14.0097 15.9359 14.8204 15.5778 15.5411 15.8871Z" fill="white"/>
</svg>
