<svg width="197" height="37" viewBox="0 0 197 37" fill="none" xmlns="http://www.w3.org/2000/svg">
<path d="M28.0322 20.1811C27.5901 23.0404 28.0179 25.9667 29.2602 28.5797C30.5025 31.1928 32.5018 33.372 34.9985 34.8342C37.4951 36.2964 40.3738 36.9741 43.2606 36.7793C46.1473 36.5845 48.9088 35.5261 51.1864 33.7417C53.464 31.9573 55.1523 29.5293 56.0323 26.773C56.9122 24.0167 56.943 21.0595 56.1207 18.2855C55.2983 15.5115 53.6609 13.0488 51.421 11.2173C49.1811 9.38586 46.4423 8.27023 43.5602 8.01532L42.8062 16.5398C43.9786 16.6435 45.0928 17.0974 46.004 17.8424C46.9152 18.5874 47.5813 19.5892 47.9158 20.7177C48.2503 21.8462 48.2378 23.0491 47.8798 24.1704C47.5219 25.2916 46.835 26.2793 45.9085 27.0052C44.982 27.7311 43.8587 28.1617 42.6843 28.2409C41.51 28.3202 40.339 28.0445 39.3234 27.4496C38.3077 26.8548 37.4944 25.9684 36.9891 24.9054C36.4837 23.8424 36.3097 22.652 36.4895 21.4888L28.0322 20.1811Z" fill="#001960"/>
<mask id="path-2-inside-1_421_10320" fill="white">
<path d="M56.7156 22.3856C56.7156 30.3531 50.2567 36.812 42.2892 36.812C34.3217 36.812 27.8628 30.3531 27.8628 22.3856C27.8628 14.4181 34.3217 7.95923 42.2892 7.95923C50.2567 7.95923 56.7156 14.4181 56.7156 22.3856ZM36.4206 22.3856C36.4206 25.6268 39.048 28.2542 42.2892 28.2542C45.5303 28.2542 48.1578 25.6268 48.1578 22.3856C48.1578 19.1445 45.5303 16.517 42.2892 16.517C39.048 16.517 36.4206 19.1445 36.4206 22.3856Z"/>
</mask>
<path d="M56.7156 22.3856C56.7156 30.3531 50.2567 36.812 42.2892 36.812C34.3217 36.812 27.8628 30.3531 27.8628 22.3856C27.8628 14.4181 34.3217 7.95923 42.2892 7.95923C50.2567 7.95923 56.7156 14.4181 56.7156 22.3856ZM36.4206 22.3856C36.4206 25.6268 39.048 28.2542 42.2892 28.2542C45.5303 28.2542 48.1578 25.6268 48.1578 22.3856C48.1578 19.1445 45.5303 16.517 42.2892 16.517C39.048 16.517 36.4206 19.1445 36.4206 22.3856Z" stroke="#001960" stroke-width="2" mask="url(#path-2-inside-1_421_10320)"/>
<rect x="1.70166" y="19.4614" width="6.38815" height="16.1236" fill="#001960"/>
<path d="M1 35.3173C1 35.5935 1.22386 35.8173 1.5 35.8173H8.45939C8.73553 35.8173 8.95939 35.5935 8.95939 35.3173V19.8986H1V35.3173Z" fill="#001960"/>
<path d="M1 19.8986V35.3173C1 35.5935 1.22386 35.8173 1.5 35.8173H8.45939C8.73553 35.8173 8.95939 35.5935 8.95939 35.3173V19.8986M1 19.8986V8.45947C1 8.18333 1.22386 7.95947 1.5 7.95947H24.3782C24.6543 7.95947 24.8782 8.18333 24.8782 8.45947V35.3173C24.8782 35.5935 24.6543 35.8173 24.3782 35.8173H17.4188C17.1426 35.8173 16.9188 35.5935 16.9188 35.3173V15.4239C16.9188 15.1478 16.6949 14.9239 16.4188 14.9239H9.45939C9.18325 14.9239 8.95939 15.1478 8.95939 15.4239V19.8986M1 19.8986H8.95939" stroke="#001960"/>
<path d="M59.7007 21.9822C59.7007 20.2312 60.0275 18.5206 60.6813 16.8504C61.335 15.1532 62.2884 13.6177 63.5414 12.2438C64.7944 10.8699 66.3197 9.77887 68.1175 8.9707C69.9153 8.13559 71.9582 7.71803 74.2462 7.71803C76.9701 7.71803 79.3263 8.29722 81.3147 9.4556C83.1882 10.5323 84.6146 11.9115 85.5939 13.5933C85.7213 13.8121 85.6523 14.0897 85.444 14.2336L81.1652 17.1891C80.9048 17.3689 80.5461 17.2638 80.399 16.9836C79.9994 16.2226 79.5011 15.6124 78.9041 15.1532C78.1959 14.5875 77.4059 14.1969 76.5343 13.9814C75.6899 13.7389 74.8727 13.6177 74.0828 13.6177C72.8026 13.6177 71.6858 13.8736 70.7324 14.3854C69.7791 14.8703 68.9891 15.5304 68.3626 16.3655C67.7361 17.2006 67.2731 18.13 66.9735 19.1536C66.6738 20.1773 66.524 21.201 66.524 22.2247C66.524 23.3561 66.7011 24.4472 67.0552 25.4978C67.4093 26.5484 67.9132 27.4778 68.5669 28.286C69.2479 29.0942 70.0651 29.7407 71.0184 30.2256C71.9718 30.6836 73.0205 30.9125 74.1645 30.9125C74.9817 30.9125 75.8125 30.7778 76.6569 30.5084C77.5013 30.2391 78.2776 29.8215 78.9858 29.2558C79.5797 28.7772 80.0581 28.1845 80.4211 27.4776C80.5602 27.2066 80.8967 27.0899 81.1598 27.2434L85.7607 29.926C85.976 30.0515 86.0675 30.3171 85.9612 30.5424C85.3803 31.7738 84.4988 32.84 83.3168 33.7411C82.0093 34.7379 80.5248 35.5056 78.8632 36.0444C77.2289 36.5563 75.6082 36.8122 74.0011 36.8122C71.9037 36.8122 69.9697 36.3946 68.1992 35.5595C66.4559 34.6975 64.9442 33.566 63.6639 32.1652C62.4109 30.7374 61.4304 29.148 60.7221 27.397C60.0412 25.619 59.7007 23.8141 59.7007 21.9822Z" fill="#001960"/>
<path d="M111.61 13.1985C111.61 13.4746 111.386 13.6985 111.11 13.6985H103.285C103.009 13.6985 102.785 13.9224 102.785 14.1985V36.0697C102.785 36.3459 102.561 36.5697 102.285 36.5697H96.584C96.3079 36.5697 96.084 36.3459 96.084 36.0697V14.1985C96.084 13.9224 95.8602 13.6985 95.584 13.6985H87.7178C87.4416 13.6985 87.2178 13.4746 87.2178 13.1985V8.37967C87.2178 8.10352 87.4416 7.87967 87.7178 7.87967H111.11C111.386 7.87967 111.61 8.10352 111.61 8.37967V13.1985Z" fill="#001960"/>
<path d="M115.383 36.5697C115.107 36.5697 114.883 36.3459 114.883 36.0697V8.37967C114.883 8.10352 115.107 7.87967 115.383 7.87967H127.263C128.652 7.87967 129.919 8.16253 131.063 8.72825C132.234 9.26703 133.242 10.0078 134.086 10.9507C134.93 11.8666 135.584 12.9038 136.047 14.0622C136.51 15.2206 136.742 16.4059 136.742 17.6181C136.742 19.2614 136.347 20.8239 135.557 22.3055C134.794 23.7872 133.718 24.9994 132.329 25.9423C130.967 26.8582 129.347 27.3162 127.467 27.3162H122.083C121.807 27.3162 121.583 27.54 121.583 27.8162V36.0697C121.583 36.3459 121.36 36.5697 121.083 36.5697H115.383ZM121.583 21.0378C121.583 21.3139 121.807 21.5378 122.083 21.5378H127.058C127.576 21.5378 128.053 21.3896 128.488 21.0933C128.924 20.7969 129.278 20.3524 129.551 19.7598C129.823 19.1671 129.959 18.4398 129.959 17.5777C129.959 16.6887 129.796 15.9614 129.469 15.3957C129.169 14.803 128.774 14.372 128.284 14.1026C127.821 13.8332 127.331 13.6985 126.813 13.6985H122.083C121.807 13.6985 121.583 13.9224 121.583 14.1985V21.0378Z" fill="#001960"/>
<path d="M153.046 36.8122C150.867 36.8122 148.892 36.4081 147.122 35.5999C145.378 34.7648 143.867 33.6603 142.587 32.2864C141.334 30.8856 140.367 29.3231 139.686 27.599C139.005 25.848 138.664 24.0431 138.664 22.1843C138.664 20.2716 139.018 18.4532 139.726 16.7291C140.462 15.005 141.47 13.4695 142.75 12.1226C144.057 10.7487 145.596 9.67111 147.367 8.88988C149.137 8.10865 151.071 7.71803 153.169 7.71803C155.321 7.71803 157.268 8.13559 159.012 8.9707C160.782 9.77887 162.294 10.8834 163.547 12.2842C164.827 13.685 165.808 15.261 166.489 17.012C167.17 18.7361 167.51 20.5006 167.51 22.3055C167.51 24.2182 167.156 26.0366 166.448 27.7607C165.74 29.4848 164.732 31.0338 163.424 32.4077C162.117 33.7546 160.578 34.8322 158.807 35.6403C157.064 36.4216 155.144 36.8122 153.046 36.8122ZM145.487 22.2651C145.487 23.3696 145.651 24.4472 145.978 25.4978C146.305 26.5215 146.781 27.4374 147.408 28.2456C148.062 29.0537 148.865 29.7003 149.818 30.1852C150.772 30.6701 151.861 30.9125 153.087 30.9125C154.367 30.9125 155.484 30.6701 156.437 30.1852C157.391 29.6733 158.181 28.9999 158.807 28.1648C159.434 27.3296 159.897 26.4002 160.196 25.3766C160.523 24.3259 160.687 23.2619 160.687 22.1843C160.687 21.0798 160.523 20.0157 160.196 18.992C159.87 17.9683 159.379 17.0524 158.726 16.2442C158.072 15.4091 157.268 14.7626 156.315 14.3046C155.362 13.8467 154.286 13.6177 153.087 13.6177C151.807 13.6177 150.69 13.8601 149.737 14.345C148.811 14.8299 148.021 15.4899 147.367 16.3251C146.74 17.1332 146.264 18.0626 145.937 19.1132C145.637 20.1369 145.487 21.1875 145.487 22.2651Z" fill="#001960"/>
<path d="M172.045 36.5697C171.769 36.5697 171.545 36.3459 171.545 36.0697V8.37967C171.545 8.10352 171.769 7.87967 172.045 7.87967H177.746C178.022 7.87967 178.246 8.10352 178.246 8.37967V25.4649C178.246 25.9629 178.895 26.1548 179.166 25.737L190.601 8.10757C190.693 7.96544 190.851 7.87967 191.021 7.87967H196.5C196.776 7.87967 197 8.10352 197 8.37967V36.0697C197 36.3459 196.776 36.5697 196.5 36.5697H190.799C190.523 36.5697 190.299 36.3459 190.299 36.0697V19.1155C190.299 18.6167 189.649 18.4254 189.379 18.8447L178.108 36.3405C178.016 36.4834 177.858 36.5697 177.688 36.5697H172.045ZM184.293 6.34414C182.686 6.34414 181.256 6.07475 180.003 5.53597C178.777 4.97025 177.824 4.21596 177.143 3.27309C176.557 2.43838 176.223 1.51387 176.141 0.499547C176.119 0.224295 176.345 0 176.622 0H180.075C180.351 0 180.57 0.225477 180.616 0.497728C180.72 1.10965 181.02 1.67109 181.515 2.18206C182.141 2.80166 183.067 3.11146 184.293 3.11146C185.519 3.11146 186.445 2.81513 187.072 2.22247C187.599 1.74421 187.914 1.16947 188.016 0.498242C188.057 0.225224 188.276 0 188.552 0H192.006C192.282 0 192.508 0.224295 192.486 0.499547C192.404 1.51387 192.07 2.43838 191.484 3.27309C190.803 4.21596 189.836 4.97025 188.583 5.53597C187.358 6.07475 185.928 6.34414 184.293 6.34414Z" fill="#001960"/>
</svg>
