<svg width="32" height="21" viewBox="0 0 32 21" fill="none" xmlns="http://www.w3.org/2000/svg">
<path d="M31 1H24.2353V4.8933C24.2353 6.32677 25.5521 7.48882 27.1765 7.48882H28.0588C29.6832 7.48882 31 6.32677 31 4.8933V1Z" fill="#001960"/>
<path d="M31 1H1V4.8933C1 6.32677 2.31681 7.48883 3.94118 7.48883H28.0588M31 1V4.8933C31 6.32677 29.6832 7.48883 28.0588 7.48883M31 1H24.2353V4.8933C24.2353 6.32677 25.5521 7.48883 27.1765 7.48883H28.0588M7.47059 7.48883V10.0748C7.47059 11.2961 8.16581 12.4357 9.32108 13.1081L12.5319 14.977C13.6871 15.6494 14.3824 16.789 14.3824 18.0103V19.9474H19.3824V17.0257C19.3824 15.7751 18.6536 14.6123 17.4532 13.9477L13.8115 11.9312C12.6111 11.2665 11.8824 10.1038 11.8824 8.8532V7.48883H7.47059Z" stroke="#001960"/>
</svg>
