<svg width="32" height="21" viewBox="0 0 32 21" fill="none" xmlns="http://www.w3.org/2000/svg">
<path d="M2.12913 16.7983C1.97824 16.4418 1.82674 16.071 1.71096 15.6873C1.55247 15.1622 1.43073 14.7139 1.34574 14.3424C1.27512 14.0338 1.20471 13.6514 1.1345 13.1955C0.966981 12.1088 0.928797 10.9117 1.17823 9.84817C1.30879 9.29435 1.68324 8.53108 2.23629 8.43008C2.32703 8.41336 2.41613 8.39166 2.50358 8.365C10.4467 5.94412 18.3898 3.52415 26.3329 1.10508C27.2007 0.840708 28.2021 1.0861 28.8993 1.71854C29.6377 2.38963 30.237 3.23289 30.5541 4.23749C30.7186 4.75944 30.8781 5.31529 30.9569 5.86504C31.0247 6.33615 30.9908 6.82828 30.9963 7.30347C31.0037 7.93049 30.8565 8.62666 30.6213 9.16963C30.5223 9.39784 30.3959 9.61363 30.2419 9.81699C29.9549 10.1957 29.6055 10.4643 29.1937 10.623C21.3068 13.6616 13.4201 16.7007 5.53368 19.7402C5.44828 19.7732 5.36308 19.8107 5.27809 19.8528C4.40417 20.2859 3.39352 19.1302 2.97226 18.4381C2.64873 17.9071 2.36768 17.3605 2.12913 16.7983ZM28.632 1.81683C28.183 1.43858 27.5764 1.26302 27.0086 1.25217C26.7988 1.24856 26.403 1.33532 25.8212 1.51247C18.2122 3.83167 10.6025 6.14906 2.99197 8.46465C2.94229 8.48001 2.94106 8.49877 2.98828 8.52091C3.24078 8.63886 3.47625 8.81352 3.69468 9.0449C4.38816 9.7797 4.88763 10.6928 5.2824 11.6967C5.75211 12.8893 6.07544 14.1463 6.2524 15.4677C6.38112 16.4255 6.37619 17.4369 6.19513 18.3621C6.14504 18.6197 6.02494 18.9354 5.83484 19.3091C5.81965 19.3389 5.82663 19.3482 5.85578 19.3369C13.5792 16.3471 21.3132 13.3579 29.0576 10.3694C29.3606 10.2529 29.6186 10.1078 29.8496 9.86512C30.2302 9.46472 30.4817 8.98457 30.604 8.42465C30.7128 7.9262 30.7695 7.38232 30.774 6.79303C30.7765 6.51918 30.7401 6.26159 30.7173 5.99858C30.6804 5.58711 30.556 5.16616 30.4531 4.76012C30.1505 3.56572 29.5435 2.58463 28.632 1.81683ZM5.09706 19.6257C5.61708 19.4616 5.96578 18.7284 6.06646 17.5873C6.16713 16.4462 6.01153 14.9908 5.63388 13.5412C5.44689 12.8235 5.21101 12.1287 4.93971 11.4967C4.66842 10.8647 4.36702 10.3077 4.05272 9.85768C3.73842 9.40761 3.41739 9.07323 3.10794 8.87363C2.79849 8.67404 2.50669 8.61314 2.2492 8.6944C1.72917 8.85853 1.38047 9.59177 1.2798 10.7328C1.17912 11.8739 1.33472 13.3293 1.71237 14.7789C1.89937 15.4967 2.13524 16.1914 2.40654 16.8234C2.67784 17.4554 2.97924 18.0124 3.29353 18.4625C3.60783 18.9125 3.92887 19.2469 4.23832 19.4465C4.54777 19.6461 4.83957 19.707 5.09706 19.6257Z" fill="#003B81"/>
<path d="M5.59835 16.9251C5.57063 17.4281 5.3908 18.2408 4.91288 18.4767C4.54089 18.6597 4.19354 18.5262 3.88622 18.2456C3.65629 18.0359 3.45305 17.7898 3.2765 17.5074C2.6206 16.4601 2.1975 15.2074 1.94499 13.9689C1.78034 13.1586 1.71362 12.3493 1.74483 11.5408C1.76618 10.9886 1.8795 10.5425 2.08479 10.2027C2.50789 9.50314 3.16934 9.76344 3.61462 10.2501C3.94801 10.6153 4.23398 11.0527 4.47253 11.5625C5.24176 13.2077 5.69935 15.0691 5.59835 16.9251ZM4.91965 13.9906C4.6616 12.9765 4.31671 12.0221 3.79507 11.1612C3.614 10.862 3.40173 10.6074 3.15826 10.3972C2.99751 10.2583 2.68896 10.1241 2.5079 10.2969C2.11682 10.6704 2.11374 11.555 2.12297 12.0844C2.13693 12.9132 2.25806 13.7493 2.48634 14.5925C2.79982 15.749 3.21245 16.8424 3.91209 17.6944C4.02664 17.8345 4.15659 17.9491 4.30193 18.0381C4.59632 18.2189 4.82296 18.1502 4.98186 17.8321C5.13418 17.527 5.21589 17.1574 5.22697 16.7231C5.25038 15.7985 5.14794 14.8876 4.91965 13.9906Z" fill="#003B81"/>
<path d="M4.91965 13.9906C4.6616 12.9765 4.31671 12.0221 3.79507 11.1612C3.614 10.862 3.40173 10.6074 3.15826 10.3972C2.99751 10.2583 2.68896 10.1241 2.5079 10.2969C2.11682 10.6704 2.11374 11.555 2.12297 12.0844C2.13693 12.9132 2.25806 13.7493 2.48634 14.5925C2.79982 15.749 3.21245 16.8424 3.91209 17.6944C4.02664 17.8345 4.15659 17.9491 4.30193 18.0381C4.59632 18.2189 4.82296 18.1502 4.98186 17.8321C5.13418 17.527 5.21589 17.1574 5.22697 16.7231C5.25038 15.7985 5.14794 14.8876 4.91965 13.9906Z" fill="#001960"/>
<path fill-rule="evenodd" clip-rule="evenodd" d="M5.09706 19.6257C5.61708 19.4616 5.96578 18.7284 6.06646 17.5873C6.16713 16.4462 6.01153 14.9908 5.63388 13.5412C5.44689 12.8235 5.21101 12.1287 4.93971 11.4967C4.66842 10.8647 4.36702 10.3077 4.05272 9.85768C3.73842 9.40761 3.41739 9.07323 3.10794 8.87363C2.79849 8.67404 2.50669 8.61314 2.2492 8.6944C1.72917 8.85853 1.38047 9.59177 1.2798 10.7328C1.17912 11.8739 1.33472 13.3293 1.71237 14.7789C1.89937 15.4967 2.13524 16.1914 2.40654 16.8234C2.67784 17.4554 2.97924 18.0124 3.29353 18.4625C3.60783 18.9125 3.92887 19.2469 4.23832 19.4465C4.54777 19.6461 4.83957 19.707 5.09706 19.6257ZM4.91288 18.4767C5.3908 18.2408 5.57063 17.4281 5.59835 16.9251C5.69935 15.0691 5.24176 13.2077 4.47253 11.5625C4.23398 11.0527 3.94801 10.6153 3.61462 10.2501C3.16934 9.76344 2.50789 9.50314 2.08479 10.2027C1.8795 10.5425 1.76618 10.9886 1.74483 11.5408C1.71362 12.3493 1.78034 13.1586 1.94499 13.9689C2.1975 15.2074 2.6206 16.4601 3.2765 17.5074C3.45305 17.7898 3.65629 18.0359 3.88622 18.2456C4.19354 18.5262 4.54089 18.6597 4.91288 18.4767Z" fill="#001960"/>
<path d="M2.12913 16.7983C1.97824 16.4418 1.82674 16.071 1.71096 15.6873C1.55247 15.1622 1.43073 14.7139 1.34574 14.3424C1.27512 14.0338 1.20471 13.6514 1.1345 13.1955C0.966981 12.1088 0.928797 10.9117 1.17823 9.84817C1.30879 9.29435 1.68324 8.53108 2.23629 8.43008C2.32703 8.41336 2.41613 8.39166 2.50358 8.365C10.4467 5.94412 18.3898 3.52415 26.3329 1.10508C27.2007 0.840708 28.2021 1.0861 28.8993 1.71854C29.6377 2.38963 30.237 3.23289 30.5541 4.23749C30.7186 4.75944 30.8781 5.31529 30.9569 5.86504C31.0247 6.33615 30.9908 6.82828 30.9963 7.30347C31.0037 7.93049 30.8565 8.62666 30.6213 9.16963C30.5223 9.39784 30.3959 9.61363 30.2419 9.81699C29.9549 10.1957 29.6055 10.4643 29.1937 10.623C21.3068 13.6616 13.4201 16.7007 5.53368 19.7402C5.44828 19.7732 5.36308 19.8107 5.27809 19.8528C4.40417 20.2859 3.39352 19.1302 2.97226 18.4381C2.64873 17.9071 2.36768 17.3605 2.12913 16.7983ZM28.632 1.81683C28.183 1.43858 27.5764 1.26302 27.0086 1.25217C26.7988 1.24856 26.403 1.33532 25.8212 1.51247C18.2122 3.83167 10.6025 6.14906 2.99197 8.46465C2.94229 8.48001 2.94106 8.49877 2.98828 8.52091C3.24078 8.63886 3.47625 8.81352 3.69468 9.0449C4.38816 9.7797 4.88763 10.6928 5.2824 11.6967C5.75211 12.8893 6.07544 14.1463 6.2524 15.4677C6.38112 16.4255 6.37619 17.4369 6.19513 18.3621C6.14504 18.6197 6.02494 18.9354 5.83484 19.3091C5.81965 19.3389 5.82663 19.3482 5.85578 19.3369C13.5792 16.3471 21.3132 13.3579 29.0576 10.3694C29.3606 10.2529 29.6186 10.1078 29.8496 9.86512C30.2302 9.46472 30.4817 8.98457 30.604 8.42465C30.7128 7.9262 30.7695 7.38232 30.774 6.79303C30.7765 6.51918 30.7401 6.26159 30.7173 5.99858C30.6804 5.58711 30.556 5.16616 30.4531 4.76012C30.1505 3.56572 29.5435 2.58463 28.632 1.81683ZM5.09706 19.6257C5.61708 19.4616 5.96578 18.7284 6.06646 17.5873C6.16713 16.4462 6.01153 14.9908 5.63388 13.5412C5.44689 12.8235 5.21101 12.1287 4.93971 11.4967C4.66842 10.8647 4.36702 10.3077 4.05272 9.85768C3.73842 9.40761 3.41739 9.07323 3.10794 8.87363C2.79849 8.67404 2.50669 8.61314 2.2492 8.6944C1.72917 8.85853 1.38047 9.59177 1.2798 10.7328C1.17912 11.8739 1.33472 13.3293 1.71237 14.7789C1.89937 15.4967 2.13524 16.1914 2.40654 16.8234C2.67784 17.4554 2.97924 18.0124 3.29353 18.4625C3.60783 18.9125 3.92887 19.2469 4.23832 19.4465C4.54777 19.6461 4.83957 19.707 5.09706 19.6257Z" stroke="#001960" stroke-width="0.7"/>
<path d="M5.59835 16.9251C5.57063 17.4281 5.3908 18.2408 4.91288 18.4767C4.54089 18.6597 4.19354 18.5262 3.88622 18.2456C3.65629 18.0359 3.45305 17.7898 3.2765 17.5074C2.6206 16.4601 2.1975 15.2074 1.94499 13.9689C1.78034 13.1586 1.71362 12.3493 1.74483 11.5408C1.76618 10.9886 1.8795 10.5425 2.08479 10.2027C2.50789 9.50314 3.16934 9.76344 3.61462 10.2501C3.94801 10.6153 4.23398 11.0527 4.47253 11.5625C5.24176 13.2077 5.69935 15.0691 5.59835 16.9251ZM4.91965 13.9906C4.6616 12.9765 4.31671 12.0221 3.79507 11.1612C3.614 10.862 3.40173 10.6074 3.15826 10.3972C2.99751 10.2583 2.68896 10.1241 2.5079 10.2969C2.11682 10.6704 2.11374 11.555 2.12297 12.0844C2.13693 12.9132 2.25806 13.7493 2.48634 14.5925C2.79982 15.749 3.21245 16.8424 3.91209 17.6944C4.02664 17.8345 4.15659 17.9491 4.30193 18.0381C4.59632 18.2189 4.82296 18.1502 4.98186 17.8321C5.13418 17.527 5.21589 17.1574 5.22697 16.7231C5.25038 15.7985 5.14794 14.8876 4.91965 13.9906Z" stroke="#001960" stroke-width="0.7"/>
<path d="M4.91965 13.9906C4.6616 12.9765 4.31671 12.0221 3.79507 11.1612C3.614 10.862 3.40173 10.6074 3.15826 10.3972C2.99751 10.2583 2.68896 10.1241 2.5079 10.2969C2.11682 10.6704 2.11374 11.555 2.12297 12.0844C2.13693 12.9132 2.25806 13.7493 2.48634 14.5925C2.79982 15.749 3.21245 16.8424 3.91209 17.6944C4.02664 17.8345 4.15659 17.9491 4.30193 18.0381C4.59632 18.2189 4.82296 18.1502 4.98186 17.8321C5.13418 17.527 5.21589 17.1574 5.22697 16.7231C5.25038 15.7985 5.14794 14.8876 4.91965 13.9906Z" stroke="#001960" stroke-width="0.7"/>
<path fill-rule="evenodd" clip-rule="evenodd" d="M5.09706 19.6257C5.61708 19.4616 5.96578 18.7284 6.06646 17.5873C6.16713 16.4462 6.01153 14.9908 5.63388 13.5412C5.44689 12.8235 5.21101 12.1287 4.93971 11.4967C4.66842 10.8647 4.36702 10.3077 4.05272 9.85768C3.73842 9.40761 3.41739 9.07323 3.10794 8.87363C2.79849 8.67404 2.50669 8.61314 2.2492 8.6944C1.72917 8.85853 1.38047 9.59177 1.2798 10.7328C1.17912 11.8739 1.33472 13.3293 1.71237 14.7789C1.89937 15.4967 2.13524 16.1914 2.40654 16.8234C2.67784 17.4554 2.97924 18.0124 3.29353 18.4625C3.60783 18.9125 3.92887 19.2469 4.23832 19.4465C4.54777 19.6461 4.83957 19.707 5.09706 19.6257ZM4.91288 18.4767C5.3908 18.2408 5.57063 17.4281 5.59835 16.9251C5.69935 15.0691 5.24176 13.2077 4.47253 11.5625C4.23398 11.0527 3.94801 10.6153 3.61462 10.2501C3.16934 9.76344 2.50789 9.50314 2.08479 10.2027C1.8795 10.5425 1.76618 10.9886 1.74483 11.5408C1.71362 12.3493 1.78034 13.1586 1.94499 13.9689C2.1975 15.2074 2.6206 16.4601 3.2765 17.5074C3.45305 17.7898 3.65629 18.0359 3.88622 18.2456C4.19354 18.5262 4.54089 18.6597 4.91288 18.4767Z" stroke="#001960" stroke-width="0.7"/>
</svg>
