<svg width="21" height="14" viewBox="0 0 21 14" fill="none" xmlns="http://www.w3.org/2000/svg">
<path d="M2.48416 7.51942L1.48785 7.01588C1.46974 7.00683 1.45462 6.9934 1.44407 6.97702C1.43352 6.96063 1.42794 6.9419 1.42792 6.92279L1.42886 5.98498C1.42884 5.96683 1.43552 5.94922 1.44779 5.93511C1.46007 5.92101 1.47718 5.91125 1.49628 5.90748L3.2253 5.56673C3.25963 5.5598 3.26119 5.54884 3.22998 5.53383L2.05155 4.95711C2.04194 4.9524 2.0339 4.94535 2.02829 4.93673C2.02268 4.92811 2.01972 4.91824 2.01971 4.90819L2.02018 4.36871C2.02019 4.35419 2.0254 4.34009 2.03498 4.32864C2.04456 4.3172 2.05797 4.30905 2.07309 4.30549C6.78368 3.20748 11.489 2.11077 16.189 1.01536C16.3027 0.988947 16.4502 0.998473 16.5701 1.02965C17.6506 1.31223 18.6919 1.58255 19.6938 1.8406C19.7097 1.84467 19.7237 1.85348 19.7337 1.86568C19.7437 1.87788 19.7491 1.8928 19.7491 1.90814L19.7495 2.33159C19.7495 2.39133 19.7186 2.42958 19.6568 2.44632L18.1507 2.85894C18.1182 2.8676 18.1182 2.87684 18.1507 2.88665L19.3548 3.25165C19.3666 3.25521 19.3768 3.26211 19.384 3.27136C19.3912 3.28062 19.3951 3.29175 19.3951 3.30317L19.3946 4.1388C19.3946 4.15632 19.3887 4.17338 19.3777 4.18753C19.3667 4.20169 19.3511 4.21221 19.3333 4.2176L18.116 4.58303C18.0929 4.58995 18.0929 4.59688 18.116 4.60381L19.1975 4.92377C19.2087 4.92708 19.2184 4.93356 19.2253 4.94228C19.2323 4.951 19.236 4.9615 19.2359 4.97227L19.2345 6.12916C19.2345 6.1423 19.2304 6.15517 19.2226 6.16624C19.2148 6.1773 19.2036 6.18608 19.1905 6.19151L19.0852 6.23394C19.0568 6.24548 19.0572 6.25587 19.0866 6.26511L19.9733 6.54784C19.9811 6.55036 19.9879 6.55509 19.9927 6.56137C19.9974 6.56766 20 6.57518 20 6.58291V7.21288C20 7.22818 19.9924 7.23886 19.9771 7.24492L4.8059 12.993C4.79059 12.9988 4.77403 13.001 4.75765 12.9996C4.74126 12.9981 4.72553 12.9931 4.71179 12.9848L1.71352 11.1793C1.70516 11.1742 1.69827 11.1674 1.69346 11.1593C1.68864 11.1512 1.68604 11.1422 1.6859 11.133L1.67934 10.332C1.67918 10.3189 1.68366 10.3061 1.69211 10.2956C1.70056 10.285 1.71251 10.2773 1.72616 10.2735L2.40784 10.0882C2.41008 10.0876 2.41207 10.0864 2.41358 10.0847C2.41509 10.0831 2.41605 10.081 2.41635 10.0789C2.41664 10.0767 2.41626 10.0746 2.41525 10.0726C2.41424 10.0707 2.41264 10.069 2.41065 10.0679L1.0426 9.29417C1.0296 9.28677 1.01886 9.27641 1.0114 9.26405C1.00395 9.2517 1.00002 9.23777 1 9.22359V7.89567C1.00004 7.88572 1.00371 7.87607 1.01043 7.86829C1.01714 7.86051 1.0265 7.85505 1.03699 7.85281L2.47994 7.54584C2.50647 7.54006 2.50788 7.53126 2.48416 7.51942ZM2.38022 4.43582C3.22264 4.8252 4.06429 5.21559 4.90515 5.607C5.03188 5.66588 5.15688 5.67916 5.28017 5.64683C9.99701 4.40248 14.7199 3.15553 19.4489 1.90598C19.4686 1.90078 19.4686 1.89573 19.4489 1.89082C18.4526 1.63306 17.4604 1.37747 16.4722 1.12403C16.3876 1.10239 16.3026 1.10152 16.217 1.12144C11.5658 2.20011 6.91508 3.27907 2.26504 4.35831C2.24382 4.36351 2.24288 4.37073 2.26223 4.37996C2.30156 4.39901 2.34089 4.41763 2.38022 4.43582ZM7.19272 5.24937C6.5023 5.43121 5.8548 5.59978 5.25021 5.75507C5.22836 5.76056 5.20651 5.76561 5.18466 5.77023C5.16531 5.77398 5.15564 5.78509 5.15564 5.80357V6.24216C5.15564 6.2615 5.16562 6.26843 5.1856 6.26295L19.6142 2.31253C19.6173 2.31169 19.6201 2.30992 19.622 2.30749C19.624 2.30507 19.625 2.30213 19.625 2.29911L19.6259 1.98348C19.6259 1.97684 19.6223 1.97439 19.6151 1.97612C15.5915 3.03689 11.4507 4.12797 7.19272 5.24937ZM5.05544 6.43224L3.443 5.64293C3.42833 5.63601 3.41304 5.63413 3.39712 5.63731L1.71914 5.95987C1.69042 5.96535 1.68902 5.97444 1.71492 5.98715C2.64225 6.44032 3.57285 6.8958 4.50673 7.3536C4.62611 7.41248 4.75112 7.41768 4.87894 7.38131C9.63479 6.02294 14.3778 4.66832 19.1081 3.31746C19.1356 3.30937 19.1356 3.30115 19.1081 3.29278L17.9334 2.93255C17.9197 2.92822 17.9058 2.92807 17.8918 2.93211L5.13691 6.4396C5.10986 6.44682 5.08073 6.44419 5.05544 6.43224ZM4.79092 8.46027L19.2509 4.09117C19.2656 4.08684 19.2729 4.07732 19.2729 4.0626L19.2762 3.39409C19.2762 3.37648 19.2671 3.37028 19.249 3.37547C14.1264 4.84757 9.34295 6.21301 4.8986 7.4718C4.86333 7.4819 4.82681 7.492 4.78904 7.5021C4.77157 7.50672 4.76283 7.51755 4.76283 7.53458L4.76236 8.44122C4.76236 8.45969 4.77188 8.46604 4.79092 8.46027ZM4.8588 5.69273C3.97767 5.2853 3.07735 4.86965 2.18171 4.45746L2.17826 4.45672L2.17485 4.45762L2.17236 4.45994L2.17141 4.46309L2.17094 4.84324C2.17094 4.85017 2.17422 4.85536 2.18077 4.85883L5.02501 6.25126C5.02685 6.25213 5.0289 6.25255 5.03097 6.25245C5.03304 6.25236 5.03505 6.25177 5.03683 6.25073C5.03861 6.24969 5.04009 6.24824 5.04114 6.24651C5.04218 6.24479 5.0428 6.24087 5.0428 6.24087L5.04327 5.77499C5.04327 5.76114 5.03594 5.75219 5.02127 5.74815C4.95229 5.72938 4.89813 5.71091 4.8588 5.69273ZM4.67527 8.62263L2.67939 7.62377C2.66534 7.61684 2.65052 7.61497 2.63491 7.61814L1.25891 7.91559C1.2227 7.92338 1.22098 7.93551 1.25376 7.95196C2.3206 8.48393 3.372 9.00898 4.40794 9.5271C4.47723 9.56174 4.56478 9.5704 4.63969 9.54659C9.41396 8.02946 14.1845 6.51378 18.9513 4.99954C18.9859 4.98857 18.9859 4.97775 18.9513 4.96707L17.9287 4.64797C17.9209 4.64566 17.9131 4.64566 17.9053 4.64797L4.73942 8.62826C4.72892 8.63141 4.71782 8.63253 4.70679 8.63156C4.69577 8.6306 4.68504 8.62756 4.67527 8.62263ZM4.58538 9.67258C4.5823 9.67359 4.57965 9.67547 4.5778 9.67796C4.57594 9.68045 4.57499 9.68342 4.57508 9.68644V11.0568C4.57506 11.0591 4.57566 11.0614 4.57683 11.0635C4.57799 11.0656 4.57969 11.0673 4.58177 11.0687C4.58385 11.07 4.58624 11.0708 4.58875 11.0711C4.59126 11.0714 4.5938 11.0711 4.59615 11.0702L19.1039 6.06984C19.1068 6.06879 19.1093 6.06694 19.1111 6.06455C19.1128 6.06215 19.1137 6.05931 19.1137 6.05642L19.1179 5.06795C19.1179 5.06567 19.1173 5.06342 19.1162 5.0614C19.115 5.05938 19.1134 5.05763 19.1114 5.05632C19.1094 5.05501 19.107 5.05416 19.1046 5.05385C19.1021 5.05353 19.0997 5.05377 19.0973 5.05453L4.58538 9.67258ZM4.48659 7.45361C3.53711 6.99337 2.58763 6.52966 1.60771 6.05945C1.58804 6.04993 1.57821 6.05541 1.57821 6.0759V6.87084C1.57821 6.88931 1.58695 6.90287 1.60443 6.91153L4.6219 8.43212C4.64188 8.44223 4.65202 8.4366 4.65233 8.41524V7.52549C4.65233 7.50615 4.64203 7.49446 4.62143 7.49041C4.57508 7.48176 4.52873 7.47396 4.48659 7.45361ZM19.7388 6.592L18.8937 6.30971C18.8812 6.30567 18.8687 6.30581 18.8562 6.31014L4.56338 11.243C4.54705 11.2486 4.5295 11.2507 4.51205 11.2492C4.49461 11.2476 4.47774 11.2424 4.46272 11.2339L2.57124 10.1571C2.55875 10.1499 2.54549 10.1483 2.53144 10.1523L1.883 10.3337C1.88076 10.3344 1.87877 10.3356 1.87726 10.3372C1.87575 10.3389 1.87479 10.3409 1.8745 10.3431C1.8742 10.3452 1.87458 10.3474 1.87559 10.3493C1.8766 10.3513 1.8782 10.3529 1.88019 10.3541C2.77693 10.854 3.66961 11.3518 4.55823 11.8474C4.67106 11.9102 4.79373 11.9392 4.92107 11.8941C9.88917 10.1276 14.8284 8.37006 19.7388 6.62145C19.7668 6.61134 19.7668 6.60153 19.7388 6.592ZM4.83259 12.8081L19.8853 7.1081C19.8918 7.10579 19.895 7.10132 19.8947 7.09468L19.8937 6.67816C19.8937 6.67383 19.8915 6.67254 19.8872 6.67427C14.9197 8.44425 9.95347 10.2138 4.98849 11.9829C4.93699 12.0015 4.88128 12.0072 4.82744 12.0167C4.81027 12.0199 4.80169 12.0295 4.80169 12.0457L4.80122 12.7887C4.80122 12.8097 4.81167 12.8162 4.83259 12.8081ZM3.33579 9.11362C2.61353 8.75021 1.89049 8.38681 1.16667 8.0234C1.16462 8.02235 1.16231 8.02182 1.15996 8.02184C1.15762 8.02186 1.15532 8.02245 1.15329 8.02354C1.15127 8.02463 1.14958 8.02619 1.1484 8.02806C1.14721 8.02993 1.14657 8.03206 1.14654 8.03422V9.16038C1.14656 9.16713 1.14842 9.17374 1.15195 9.17958C1.15548 9.18542 1.16055 9.19029 1.16667 9.19372L4.43182 11.0451C4.43388 11.0462 4.43624 11.0469 4.43866 11.0469C4.44107 11.0469 4.44345 11.0464 4.44555 11.0453C4.44765 11.0442 4.44939 11.0426 4.4506 11.0406C4.4518 11.0387 4.45243 11.0365 4.45242 11.0343L4.45289 9.67864C4.45289 9.66219 4.44446 9.65151 4.4276 9.6466C4.39982 9.63794 4.37376 9.6277 4.34942 9.61586C4.04541 9.46807 3.70753 9.30066 3.33579 9.11362ZM4.672 12.0067C4.58647 11.9724 4.53029 11.9477 4.50345 11.9327C3.61764 11.4356 2.73214 10.9374 1.84695 10.4381C1.84497 10.437 1.84272 10.4365 1.84043 10.4364C1.83813 10.4364 1.83588 10.437 1.83389 10.438C1.8319 10.4391 1.83025 10.4406 1.82909 10.4424C1.82793 10.4443 1.82731 10.4463 1.82729 10.4485V11.0624C1.82729 11.0792 1.83478 11.0921 1.84976 11.1014L4.66685 12.7969C4.66685 12.7969 4.67043 12.7985 4.67243 12.7986C4.67444 12.7987 4.67817 12.7974 4.67817 12.7974L4.68235 12.7935L4.6837 12.7882L4.68136 12.0197C4.68136 12.0136 4.67824 12.0093 4.672 12.0067Z" fill="#003B81"/>
<path d="M5.05544 6.43224L3.443 5.64293C3.42833 5.63601 3.41304 5.63413 3.39712 5.63731L1.71914 5.95987C1.69042 5.96535 1.68902 5.97444 1.71492 5.98715C2.64225 6.44032 3.57285 6.8958 4.50673 7.3536C4.62611 7.41248 4.75112 7.41768 4.87894 7.38131L19.1081 3.31746C19.1356 3.30937 19.1356 3.30115 19.1081 3.29278L17.9334 2.93255C17.9197 2.92822 17.9058 2.92807 17.8918 2.93211L5.13691 6.4396C5.10986 6.44682 5.08073 6.44419 5.05544 6.43224Z" fill="#001960"/>
<path d="M4.67527 8.62263L2.67939 7.62377C2.66534 7.61684 2.65052 7.61497 2.63491 7.61814L1.25891 7.91559C1.2227 7.92338 1.22098 7.93551 1.25376 7.95196C2.3206 8.48393 3.372 9.00898 4.40794 9.5271C4.47723 9.56174 4.56478 9.5704 4.63969 9.54659C9.41396 8.02946 14.1845 6.51378 18.9513 4.99954C18.9859 4.98857 18.9859 4.97775 18.9513 4.96707L17.9287 4.64797C17.9209 4.64566 17.9131 4.64566 17.9053 4.64797L4.73942 8.62826C4.72892 8.63141 4.71782 8.63253 4.70679 8.63156C4.69577 8.6306 4.68504 8.62756 4.67527 8.62263Z" fill="#001960"/>
<path d="M19.7388 6.592L18.8937 6.30971C18.8812 6.30567 18.8687 6.30581 18.8562 6.31014L4.56338 11.243C4.54705 11.2486 4.5295 11.2507 4.51205 11.2492C4.49461 11.2476 4.47774 11.2424 4.46272 11.2339L2.57124 10.1571C2.55875 10.1499 2.54549 10.1483 2.53144 10.1523L1.883 10.3337C1.88076 10.3344 1.87877 10.3356 1.87726 10.3372C1.87575 10.3389 1.87479 10.3409 1.8745 10.3431C1.8742 10.3452 1.87458 10.3474 1.87559 10.3493C1.8766 10.3513 1.8782 10.3529 1.88019 10.3541L4.55823 11.8474C4.67106 11.9102 4.79373 11.9392 4.92107 11.8941C9.88917 10.1276 14.8284 8.37006 19.7388 6.62145C19.7668 6.61134 19.7668 6.60153 19.7388 6.592Z" fill="#001960"/>
<path d="M4.87894 7.38131C4.75112 7.41768 4.62611 7.41248 4.50673 7.3536C3.57285 6.8958 2.64225 6.44032 1.71492 5.98715C1.68902 5.97444 1.69042 5.96535 1.71914 5.95987L3.39712 5.63731C3.41304 5.63413 3.42833 5.63601 3.443 5.64293L5.05544 6.43224C5.08073 6.44419 5.10986 6.44682 5.13691 6.4396L17.8918 2.93211C17.9058 2.92807 17.9197 2.92822 17.9334 2.93255L19.1081 3.29278C19.1356 3.30115 19.1356 3.30937 19.1081 3.31746M4.87894 7.38131C9.63479 6.02294 14.3778 4.66832 19.1081 3.31746M4.87894 7.38131L19.1081 3.31746M1.88019 10.3541C1.8782 10.3529 1.8766 10.3513 1.87559 10.3493C1.87458 10.3474 1.8742 10.3452 1.8745 10.3431C1.87479 10.3409 1.87575 10.3389 1.87726 10.3372C1.87877 10.3356 1.88076 10.3344 1.883 10.3337L2.53144 10.1523C2.54549 10.1483 2.55875 10.1499 2.57124 10.1571L4.46272 11.2339C4.47774 11.2424 4.49461 11.2476 4.51205 11.2492C4.5295 11.2507 4.54705 11.2486 4.56338 11.243L18.8562 6.31014C18.8687 6.30581 18.8812 6.30567 18.8937 6.30971L19.7388 6.592C19.7668 6.60153 19.7668 6.61134 19.7388 6.62145C14.8284 8.37006 9.88917 10.1276 4.92107 11.8941C4.79373 11.9392 4.67106 11.9102 4.55823 11.8474M1.88019 10.3541C2.77693 10.854 3.66961 11.3518 4.55823 11.8474M1.88019 10.3541L4.55823 11.8474M2.48416 7.51942L1.48785 7.01588C1.46974 7.00683 1.45462 6.9934 1.44407 6.97702C1.43352 6.96063 1.42794 6.9419 1.42792 6.92279L1.42886 5.98498C1.42884 5.96683 1.43552 5.94922 1.44779 5.93511C1.46007 5.92101 1.47718 5.91125 1.49628 5.90748L3.2253 5.56673C3.25963 5.5598 3.26119 5.54884 3.22998 5.53383L2.05155 4.95711C2.04194 4.9524 2.0339 4.94535 2.02829 4.93673C2.02268 4.92811 2.01972 4.91824 2.01971 4.90819L2.02018 4.36871C2.02019 4.35419 2.0254 4.34009 2.03498 4.32864C2.04456 4.3172 2.05797 4.30905 2.07309 4.30549C6.78368 3.20748 11.489 2.11077 16.189 1.01536C16.3027 0.988947 16.4502 0.998473 16.5701 1.02965C17.6506 1.31223 18.6919 1.58255 19.6938 1.8406C19.7097 1.84467 19.7237 1.85348 19.7337 1.86568C19.7437 1.87788 19.7491 1.8928 19.7491 1.90814L19.7495 2.33159C19.7495 2.39133 19.7186 2.42958 19.6568 2.44632L18.1507 2.85894C18.1182 2.8676 18.1182 2.87684 18.1507 2.88665L19.3548 3.25165C19.3666 3.25521 19.3768 3.26211 19.384 3.27136C19.3912 3.28062 19.3951 3.29175 19.3951 3.30317L19.3946 4.1388C19.3946 4.15632 19.3887 4.17338 19.3777 4.18753C19.3667 4.20169 19.3511 4.21221 19.3333 4.2176L18.116 4.58303C18.0929 4.58995 18.0929 4.59688 18.116 4.60381L19.1975 4.92377C19.2087 4.92708 19.2184 4.93356 19.2253 4.94228C19.2323 4.951 19.236 4.9615 19.2359 4.97227L19.2345 6.12916C19.2345 6.1423 19.2304 6.15517 19.2226 6.16624C19.2148 6.1773 19.2036 6.18608 19.1905 6.19151L19.0852 6.23394C19.0568 6.24548 19.0572 6.25587 19.0866 6.26511L19.9733 6.54784C19.9811 6.55036 19.9879 6.55509 19.9927 6.56137C19.9974 6.56766 20 6.57518 20 6.58291V7.21288C20 7.22818 19.9924 7.23886 19.9771 7.24492L4.8059 12.993C4.79059 12.9988 4.77403 13.001 4.75765 12.9996C4.74126 12.9981 4.72553 12.9931 4.71179 12.9848L1.71352 11.1793C1.70516 11.1742 1.69827 11.1674 1.69346 11.1593C1.68864 11.1512 1.68604 11.1422 1.6859 11.133L1.67934 10.332C1.67918 10.3189 1.68366 10.3061 1.69211 10.2956C1.70056 10.285 1.71251 10.2773 1.72616 10.2735L2.40784 10.0882C2.41008 10.0876 2.41207 10.0864 2.41358 10.0847C2.41509 10.0831 2.41605 10.081 2.41635 10.0789C2.41664 10.0767 2.41626 10.0746 2.41525 10.0726C2.41424 10.0707 2.41264 10.069 2.41065 10.0679L1.0426 9.29417C1.0296 9.28677 1.01886 9.27641 1.0114 9.26405C1.00395 9.2517 1.00002 9.23777 1 9.22359V7.89567C1.00004 7.88572 1.00371 7.87607 1.01043 7.86829C1.01714 7.86051 1.0265 7.85505 1.03699 7.85281L2.47994 7.54584C2.50647 7.54006 2.50788 7.53126 2.48416 7.51942ZM2.38022 4.43582C3.22264 4.8252 4.06429 5.21559 4.90515 5.607C5.03188 5.66588 5.15688 5.67916 5.28017 5.64683C9.99701 4.40248 14.7199 3.15553 19.4489 1.90598C19.4686 1.90078 19.4686 1.89573 19.4489 1.89082C18.4526 1.63306 17.4604 1.37747 16.4722 1.12403C16.3876 1.10239 16.3026 1.10152 16.217 1.12144C11.5658 2.20011 6.91508 3.27907 2.26504 4.35831C2.24382 4.36351 2.24288 4.37073 2.26223 4.37996C2.30156 4.39901 2.34089 4.41763 2.38022 4.43582ZM7.19272 5.24937C6.5023 5.43121 5.8548 5.59978 5.25021 5.75507C5.22836 5.76056 5.20651 5.76561 5.18466 5.77023C5.16531 5.77398 5.15564 5.78509 5.15564 5.80357V6.24216C5.15564 6.2615 5.16562 6.26843 5.1856 6.26295L19.6142 2.31253C19.6173 2.31169 19.6201 2.30992 19.622 2.30749C19.624 2.30507 19.625 2.30213 19.625 2.29911L19.6259 1.98348C19.6259 1.97684 19.6223 1.97439 19.6151 1.97612C15.5915 3.03689 11.4507 4.12797 7.19272 5.24937ZM4.79092 8.46027L19.2509 4.09117C19.2656 4.08684 19.2729 4.07732 19.2729 4.0626L19.2762 3.39409C19.2762 3.37648 19.2671 3.37028 19.249 3.37547C14.1264 4.84757 9.34295 6.21301 4.8986 7.4718C4.86333 7.4819 4.82681 7.492 4.78904 7.5021C4.77157 7.50672 4.76283 7.51755 4.76283 7.53458L4.76236 8.44122C4.76236 8.45969 4.77188 8.46604 4.79092 8.46027ZM4.8588 5.69273C3.97767 5.2853 3.07735 4.86965 2.18171 4.45746L2.17826 4.45672L2.17485 4.45762L2.17236 4.45994L2.17141 4.46309L2.17094 4.84324C2.17094 4.85017 2.17422 4.85536 2.18077 4.85883L5.02501 6.25126C5.02685 6.25213 5.0289 6.25255 5.03097 6.25245C5.03304 6.25236 5.03505 6.25177 5.03683 6.25073C5.03861 6.24969 5.04009 6.24824 5.04114 6.24651C5.04218 6.24479 5.0428 6.24087 5.0428 6.24087L5.04327 5.77499C5.04327 5.76114 5.03594 5.75219 5.02127 5.74815C4.95229 5.72938 4.89813 5.71091 4.8588 5.69273ZM4.67527 8.62263L2.67939 7.62377C2.66534 7.61684 2.65052 7.61497 2.63491 7.61814L1.25891 7.91559C1.2227 7.92338 1.22098 7.93551 1.25376 7.95196C2.3206 8.48394 3.372 9.00898 4.40794 9.5271C4.47723 9.56174 4.56478 9.5704 4.63969 9.54659C9.41396 8.02946 14.1845 6.51378 18.9513 4.99954C18.9859 4.98857 18.9859 4.97775 18.9513 4.96707L17.9287 4.64797C17.9209 4.64566 17.9131 4.64566 17.9053 4.64797L4.73942 8.62826C4.72892 8.63141 4.71782 8.63253 4.70679 8.63156C4.69577 8.6306 4.68504 8.62756 4.67527 8.62263ZM4.58538 9.67258C4.5823 9.67359 4.57965 9.67547 4.5778 9.67796C4.57594 9.68045 4.57499 9.68342 4.57508 9.68644V11.0568C4.57506 11.0591 4.57566 11.0614 4.57683 11.0635C4.57799 11.0656 4.57969 11.0673 4.58177 11.0687C4.58385 11.07 4.58624 11.0708 4.58875 11.0711C4.59126 11.0714 4.5938 11.0711 4.59615 11.0702L19.1039 6.06984C19.1068 6.06879 19.1093 6.06694 19.1111 6.06455C19.1128 6.06215 19.1137 6.05931 19.1137 6.05642L19.1179 5.06795C19.1179 5.06567 19.1173 5.06342 19.1162 5.0614C19.115 5.05938 19.1134 5.05763 19.1114 5.05632C19.1094 5.05501 19.107 5.05416 19.1046 5.05385C19.1021 5.05353 19.0997 5.05377 19.0973 5.05453L4.58538 9.67258ZM4.48659 7.45361C3.53711 6.99337 2.58763 6.52966 1.60771 6.05945C1.58804 6.04993 1.57821 6.05541 1.57821 6.0759V6.87084C1.57821 6.88931 1.58695 6.90287 1.60443 6.91153L4.6219 8.43212C4.64188 8.44223 4.65202 8.4366 4.65233 8.41524V7.52549C4.65233 7.50615 4.64203 7.49446 4.62143 7.49041C4.57508 7.48176 4.52873 7.47396 4.48659 7.45361ZM4.83259 12.8081L19.8853 7.1081C19.8918 7.10579 19.895 7.10132 19.8947 7.09468L19.8937 6.67816C19.8937 6.67383 19.8915 6.67254 19.8872 6.67427C14.9197 8.44425 9.95347 10.2138 4.98849 11.9829C4.93699 12.0015 4.88128 12.0072 4.82744 12.0167C4.81027 12.0199 4.80169 12.0295 4.80169 12.0457L4.80122 12.7887C4.80122 12.8097 4.81167 12.8162 4.83259 12.8081ZM3.33579 9.11362C2.61353 8.75021 1.89049 8.38681 1.16667 8.0234C1.16462 8.02235 1.16231 8.02182 1.15996 8.02184C1.15762 8.02186 1.15532 8.02245 1.15329 8.02354C1.15127 8.02463 1.14958 8.02619 1.1484 8.02806C1.14721 8.02993 1.14657 8.03206 1.14654 8.03422V9.16038C1.14656 9.16713 1.14842 9.17374 1.15195 9.17958C1.15548 9.18542 1.16055 9.19029 1.16667 9.19372L4.43182 11.0451C4.43388 11.0462 4.43624 11.0469 4.43866 11.0469C4.44107 11.0469 4.44345 11.0464 4.44555 11.0453C4.44765 11.0442 4.44939 11.0426 4.4506 11.0406C4.4518 11.0387 4.45243 11.0365 4.45242 11.0343L4.45289 9.67864C4.45289 9.66219 4.44446 9.65151 4.4276 9.6466C4.39982 9.63794 4.37376 9.6277 4.34942 9.61586C4.04541 9.46807 3.70753 9.30066 3.33579 9.11362ZM4.672 12.0067C4.58647 11.9724 4.53029 11.9477 4.50345 11.9327C3.61764 11.4356 2.73214 10.9374 1.84695 10.4381C1.84497 10.437 1.84272 10.4365 1.84043 10.4364C1.83813 10.4364 1.83588 10.437 1.83389 10.438C1.8319 10.4391 1.83025 10.4406 1.82909 10.4424C1.82793 10.4443 1.82731 10.4463 1.82729 10.4485V11.0624C1.82729 11.0792 1.83478 11.0921 1.84976 11.1014L4.66685 12.7969C4.66685 12.7969 4.67043 12.7985 4.67243 12.7986C4.67444 12.7987 4.67817 12.7974 4.67817 12.7974L4.68235 12.7935L4.6837 12.7882L4.68136 12.0197C4.68136 12.0136 4.67824 12.0093 4.672 12.0067Z" stroke="#001960" stroke-width="0.5"/>
</svg>
