<svg width="32" height="21" viewBox="0 0 32 21" fill="none" xmlns="http://www.w3.org/2000/svg">
<path d="M3.3434 11.2938L1.77029 10.4988C1.7417 10.4845 1.71782 10.4633 1.70116 10.4374C1.68451 10.4115 1.6757 10.3819 1.67567 10.3518L1.67715 8.87102C1.67711 8.84236 1.68767 8.81456 1.70704 8.79229C1.72642 8.77001 1.75345 8.75461 1.7836 8.74865L4.51363 8.21063C4.56784 8.19969 4.5703 8.18237 4.52102 8.15867L2.66034 7.24807C2.64517 7.24063 2.63248 7.2295 2.62362 7.21589C2.61477 7.20228 2.61008 7.1867 2.61007 7.17082L2.61081 6.31901C2.61083 6.29608 2.61906 6.27383 2.63418 6.25575C2.64931 6.23768 2.67048 6.22482 2.69435 6.2192C10.1321 4.4855 17.5615 2.75385 24.9826 1.02425C25.1622 0.982548 25.3951 0.997588 25.5843 1.04681C27.2905 1.493 28.9346 1.91981 30.5165 2.32726C30.5416 2.33369 30.5637 2.34761 30.5795 2.36687C30.5953 2.38613 30.6038 2.40968 30.6038 2.43391L30.6045 3.1025C30.6045 3.19684 30.5557 3.25723 30.4581 3.28367L28.08 3.93517C28.0287 3.94884 28.0287 3.96343 28.08 3.97892L29.9813 4.55523C29.9998 4.56085 30.016 4.57175 30.0274 4.58636C30.0388 4.60098 30.0449 4.61855 30.0449 4.63658L30.0442 5.956C30.0442 5.98367 30.0348 6.0106 30.0174 6.03295C30 6.05529 29.9755 6.07191 29.9473 6.08042L28.0253 6.65741C27.9888 6.66835 27.9888 6.67929 28.0253 6.69022L29.7329 7.19543C29.7506 7.20065 29.766 7.21089 29.7769 7.22466C29.7878 7.23842 29.7936 7.255 29.7936 7.272L29.7913 9.09867C29.7914 9.11941 29.7848 9.13975 29.7725 9.15722C29.7601 9.17469 29.7426 9.18855 29.7218 9.19712L29.5555 9.26411C29.5107 9.28234 29.5114 9.29875 29.5577 9.31333L30.9579 9.75975C30.9702 9.76373 30.9809 9.77119 30.9884 9.78112C30.996 9.79104 31 9.80292 31 9.81512V10.8098C31 10.834 30.9879 10.8508 30.9638 10.8604L7.00931 19.9364C6.98514 19.9454 6.959 19.949 6.93313 19.9467C6.90726 19.9444 6.88242 19.9364 6.86073 19.9234L2.12661 17.0726C2.11341 17.0646 2.10253 17.0537 2.09493 17.041C2.08733 17.0282 2.08323 17.014 2.08299 16.9995L2.07264 15.7347C2.07239 15.7141 2.07947 15.6939 2.09281 15.6772C2.10615 15.6606 2.12502 15.6484 2.14657 15.6424L3.22291 15.3498C3.22644 15.3488 3.22959 15.3469 3.23197 15.3443C3.23435 15.3417 3.23587 15.3385 3.23633 15.3351C3.2368 15.3317 3.2362 15.3283 3.23461 15.3252C3.23301 15.3221 3.23049 15.3195 3.22734 15.3177L1.06727 14.0961C1.04674 14.0844 1.02978 14.068 1.018 14.0485C1.00623 14.029 1.00003 14.007 1 13.9846V11.8879C1.00006 11.8722 1.00586 11.857 1.01646 11.8447C1.02707 11.8324 1.04184 11.8238 1.0584 11.8202L3.33675 11.3355C3.37864 11.3264 3.38086 11.3125 3.3434 11.2938ZM3.17929 6.42497C4.50944 7.03979 5.83835 7.6562 7.16603 8.27421C7.36612 8.36718 7.5635 8.38815 7.75817 8.3371C15.2058 6.37233 22.6631 4.40346 30.1299 2.43049C30.161 2.42229 30.161 2.41431 30.1299 2.40656C28.5568 1.99957 26.9901 1.596 25.4298 1.19584C25.2962 1.16166 25.1619 1.16029 25.0269 1.19174C17.6828 2.89491 10.3396 4.59853 2.99744 6.3026C2.96392 6.31081 2.96245 6.3222 2.993 6.33678C3.0551 6.36686 3.1172 6.39626 3.17929 6.42497ZM10.778 7.70952C9.68784 7.99665 8.66547 8.26281 7.71086 8.50801C7.67636 8.51667 7.64186 8.52465 7.60736 8.53194C7.57681 8.53786 7.56153 8.55541 7.56153 8.58458V9.2771C7.56153 9.30764 7.5773 9.31857 7.60884 9.30992L30.3909 3.07242C30.3958 3.07108 30.4001 3.06829 30.4032 3.06446C30.4063 3.06064 30.4079 3.05599 30.4079 3.05123L30.4093 2.55286C30.4093 2.54238 30.4037 2.5385 30.3923 2.54124C24.0393 4.21615 17.5012 5.93891 10.778 7.70952ZM7.40333 9.57722L4.85738 8.33095C4.83421 8.32001 4.81006 8.31705 4.78493 8.32206L2.13548 8.83137C2.09014 8.84003 2.08792 8.85439 2.12883 8.87444C3.59302 9.58998 5.06239 10.3092 6.53694 11.032C6.72544 11.125 6.92282 11.1332 7.12464 11.0757C14.6339 8.93095 22.1229 6.79209 29.5917 4.65914C29.6351 4.64638 29.6351 4.63339 29.5917 4.62017L27.737 4.05139C27.7153 4.04455 27.6934 4.04432 27.6712 4.05071L7.53196 9.58884C7.48925 9.60025 7.44326 9.59609 7.40333 9.57722ZM6.98566 12.7794L29.8172 5.8808C29.8404 5.87396 29.852 5.85892 29.852 5.83568L29.8571 4.78015C29.8571 4.75234 29.8428 4.74255 29.8143 4.75075C21.7259 7.07511 14.1731 9.23107 7.15568 11.2186C7.09999 11.2346 7.04233 11.2505 6.9827 11.2665C6.9551 11.2738 6.9413 11.2909 6.9413 11.3178L6.94056 12.7493C6.94056 12.7785 6.9556 12.7885 6.98566 12.7794ZM7.09285 8.40957C5.70159 7.76627 4.28003 7.10998 2.86585 6.45915L2.86041 6.45797L2.85503 6.45939L2.85109 6.46306L2.84959 6.46804L2.84885 7.06827C2.84885 7.07921 2.85402 7.08742 2.86437 7.09288L7.35528 9.29146C7.35818 9.29284 7.36142 9.29349 7.36469 9.29335C7.36795 9.2932 7.37114 9.29226 7.37395 9.29062C7.37676 9.28898 7.3791 9.28669 7.38074 9.28397C7.38239 9.28124 7.38337 9.27505 7.38337 9.27505L7.38411 8.53946C7.38411 8.51758 7.37253 8.50345 7.34937 8.49707C7.24045 8.46745 7.15495 8.43828 7.09285 8.40957ZM6.80306 13.0357L3.65167 11.4586C3.62949 11.4476 3.60608 11.4447 3.58144 11.4497L1.4088 11.9194C1.35163 11.9317 1.34892 11.9508 1.40067 11.9768C3.08516 12.8167 4.74526 13.6458 6.38096 14.4638C6.49037 14.5185 6.6286 14.5322 6.74688 14.4946C14.2852 12.0991 21.8176 9.70597 29.3441 7.31507C29.3988 7.29775 29.3988 7.28066 29.3441 7.26379L27.7296 6.75995C27.7173 6.75631 27.7049 6.75631 27.6926 6.75995L6.90434 13.0446C6.88777 13.0496 6.87025 13.0514 6.85283 13.0498C6.83542 13.0483 6.81848 13.0435 6.80306 13.0357ZM6.66113 14.6935C6.65627 14.6951 6.65207 14.6981 6.64915 14.702C6.64623 14.706 6.64473 14.7107 6.64487 14.7154V16.8791C6.64484 16.8828 6.64578 16.8865 6.64762 16.8897C6.64946 16.893 6.65214 16.8958 6.65542 16.8979C6.6587 16.9 6.66249 16.9013 6.66645 16.9017C6.67041 16.9021 6.67442 16.9017 6.67813 16.9003L29.5851 9.00501C29.5897 9.00335 29.5936 9.00043 29.5964 8.99665C29.5992 8.99287 29.6007 8.98839 29.6006 8.98382L29.6073 7.42308C29.6073 7.41948 29.6063 7.41593 29.6045 7.41274C29.6027 7.40954 29.6001 7.40679 29.5969 7.40472C29.5937 7.40264 29.5901 7.4013 29.5862 7.40081C29.5823 7.40032 29.5784 7.40069 29.5747 7.40189L6.66113 14.6935ZM6.50515 11.1899C5.00596 10.4632 3.50678 9.73104 1.95954 8.98861C1.92849 8.97357 1.91297 8.98223 1.91297 9.01459V10.2697C1.91297 10.2989 1.92677 10.3203 1.95436 10.334L6.71879 12.7349C6.75033 12.7509 6.76635 12.742 6.76684 12.7083V11.3034C6.76684 11.2729 6.75058 11.2544 6.71805 11.248C6.64487 11.2344 6.57168 11.222 6.50515 11.1899ZM30.5875 9.82948L29.2532 9.38375C29.2335 9.37737 29.2137 9.3776 29.194 9.38443L6.62639 17.1731C6.6006 17.182 6.57289 17.1854 6.54535 17.1829C6.51781 17.1804 6.49117 17.1721 6.46745 17.1587L3.4809 15.4585C3.46119 15.4471 3.44024 15.4446 3.41807 15.451L2.39421 15.7375C2.39068 15.7385 2.38753 15.7404 2.38515 15.743C2.38277 15.7456 2.38125 15.7488 2.38079 15.7522C2.38032 15.7556 2.38092 15.759 2.38251 15.7621C2.38411 15.7652 2.38663 15.7678 2.38978 15.7696C3.80568 16.559 5.21517 17.3449 6.61825 18.1275C6.79641 18.2266 6.99009 18.2724 7.19117 18.2013C15.0355 15.412 22.8343 12.6369 30.5875 9.87597C30.6319 9.86001 30.6319 9.84452 30.5875 9.82948ZM7.05145 19.6444L30.8189 10.6444C30.8292 10.6407 30.8342 10.6337 30.8337 10.6232L30.8322 9.96552C30.8322 9.95869 30.8287 9.95664 30.8218 9.95937C22.9785 12.7541 15.1371 15.5481 7.29762 18.3414C7.2163 18.3708 7.12833 18.3797 7.04332 18.3948C7.01621 18.3998 7.00266 18.415 7.00266 18.4406L7.00192 19.6137C7.00192 19.6469 7.01843 19.6572 7.05145 19.6444ZM4.68809 13.811C3.54768 13.2372 2.40604 12.6634 1.26317 12.0896C1.25993 12.0879 1.25628 12.0871 1.25258 12.0871C1.24887 12.0872 1.24525 12.0881 1.24204 12.0898C1.23884 12.0915 1.23618 12.094 1.23431 12.0969C1.23244 12.0999 1.23143 12.1032 1.23138 12.1067V13.8848C1.23141 13.8955 1.23435 13.9059 1.23992 13.9151C1.24549 13.9243 1.25349 13.932 1.26317 13.9374L6.41866 16.8607C6.42192 16.8625 6.42565 16.8635 6.42946 16.8635C6.43327 16.8636 6.43703 16.8627 6.44034 16.8609C6.44365 16.8592 6.4464 16.8567 6.44831 16.8536C6.45022 16.8506 6.45121 16.8471 6.45119 16.8436L6.45192 14.7031C6.45192 14.6771 6.43862 14.6603 6.41201 14.6525C6.36814 14.6389 6.32699 14.6227 6.28855 14.604C5.80854 14.3706 5.27505 14.1063 4.68809 13.811ZM6.79789 18.379C6.66286 18.3248 6.57415 18.2858 6.53176 18.2621C5.13311 17.4773 3.73496 16.6907 2.33729 15.9022C2.33416 15.9005 2.33061 15.8997 2.32699 15.8997C2.32337 15.8996 2.31981 15.9005 2.31667 15.9022C2.31353 15.9038 2.31092 15.9062 2.30909 15.9091C2.30726 15.912 2.30628 15.9153 2.30624 15.9186V16.888C2.30624 16.9145 2.31807 16.935 2.34173 16.9495L6.78976 19.6267C6.78976 19.6267 6.79542 19.6293 6.79858 19.6294C6.80174 19.6295 6.80764 19.6274 6.80764 19.6274L6.81423 19.6214L6.81637 19.613L6.81268 18.3995C6.81268 18.39 6.80775 18.3831 6.79789 18.379Z" fill="#003B81"/>
<path d="M7.40333 9.57722L4.85738 8.33095C4.83421 8.32001 4.81006 8.31705 4.78493 8.32206L2.13548 8.83137C2.09014 8.84003 2.08792 8.85439 2.12883 8.87444C3.59302 9.58998 5.06239 10.3092 6.53694 11.032C6.72544 11.125 6.92282 11.1332 7.12464 11.0757L29.5917 4.65914C29.6351 4.64638 29.6351 4.63339 29.5917 4.62017L27.737 4.05139C27.7153 4.04455 27.6934 4.04432 27.6712 4.05071L7.53196 9.58884C7.48925 9.60025 7.44326 9.59609 7.40333 9.57722Z" fill="#001960"/>
<path d="M6.80306 13.0357L3.65167 11.4586C3.62949 11.4476 3.60608 11.4447 3.58144 11.4497L1.4088 11.9194C1.35163 11.9317 1.34892 11.9508 1.40067 11.9768C3.08516 12.8167 4.74526 13.6458 6.38096 14.4638C6.49037 14.5185 6.6286 14.5322 6.74688 14.4946C14.2852 12.0991 21.8176 9.70597 29.3441 7.31507C29.3988 7.29775 29.3988 7.28066 29.3441 7.26379L27.7296 6.75995C27.7173 6.75631 27.7049 6.75631 27.6926 6.75995L6.90434 13.0446C6.88777 13.0496 6.87025 13.0514 6.85283 13.0498C6.83542 13.0483 6.81848 13.0435 6.80306 13.0357Z" fill="#001960"/>
<path d="M30.5875 9.82948L29.2532 9.38375C29.2335 9.37737 29.2137 9.3776 29.194 9.38443L6.62639 17.1731C6.6006 17.182 6.57289 17.1854 6.54535 17.1829C6.51781 17.1804 6.49117 17.1721 6.46745 17.1587L3.4809 15.4585C3.46119 15.4471 3.44024 15.4446 3.41807 15.451L2.39421 15.7375C2.39068 15.7385 2.38753 15.7404 2.38515 15.743C2.38277 15.7456 2.38125 15.7488 2.38079 15.7522C2.38032 15.7556 2.38092 15.759 2.38251 15.7621C2.38411 15.7652 2.38663 15.7678 2.38978 15.7696L6.61825 18.1275C6.79641 18.2266 6.99009 18.2724 7.19117 18.2013C15.0355 15.412 22.8343 12.6369 30.5875 9.87597C30.6319 9.86001 30.6319 9.84452 30.5875 9.82948Z" fill="#001960"/>
<path d="M7.12464 11.0757C6.92282 11.1332 6.72544 11.125 6.53694 11.032C5.06239 10.3092 3.59302 9.58998 2.12883 8.87444C2.08792 8.85439 2.09014 8.84003 2.13548 8.83137L4.78493 8.32206C4.81006 8.31705 4.83421 8.32001 4.85738 8.33095L7.40333 9.57722C7.44326 9.59609 7.48925 9.60025 7.53196 9.58884L27.6712 4.05071C27.6934 4.04432 27.7153 4.04455 27.737 4.05139L29.5917 4.62017C29.6351 4.63339 29.6351 4.64638 29.5917 4.65914M7.12464 11.0757C14.6339 8.93095 22.1229 6.79209 29.5917 4.65914M7.12464 11.0757L29.5917 4.65914M2.38978 15.7696C2.38663 15.7678 2.38411 15.7652 2.38251 15.7621C2.38092 15.759 2.38032 15.7556 2.38079 15.7522C2.38125 15.7488 2.38277 15.7456 2.38515 15.743C2.38753 15.7404 2.39068 15.7385 2.39421 15.7375L3.41807 15.451C3.44024 15.4446 3.46119 15.4471 3.4809 15.4585L6.46745 17.1587C6.49117 17.1721 6.51781 17.1804 6.54535 17.1829C6.57289 17.1854 6.6006 17.182 6.62639 17.1731L29.194 9.38443C29.2137 9.3776 29.2335 9.37737 29.2532 9.38375L30.5875 9.82948C30.6319 9.84452 30.6319 9.86001 30.5875 9.87597C22.8343 12.6369 15.0355 15.412 7.19117 18.2013C6.99009 18.2724 6.79641 18.2266 6.61825 18.1275M2.38978 15.7696C3.80568 16.559 5.21517 17.3449 6.61825 18.1275M2.38978 15.7696L6.61825 18.1275M3.3434 11.2938L1.77029 10.4988C1.7417 10.4845 1.71782 10.4633 1.70116 10.4374C1.68451 10.4115 1.6757 10.3819 1.67567 10.3518L1.67715 8.87102C1.67711 8.84236 1.68767 8.81456 1.70704 8.79229C1.72642 8.77001 1.75345 8.75461 1.7836 8.74865L4.51363 8.21063C4.56784 8.19969 4.5703 8.18237 4.52102 8.15867L2.66034 7.24807C2.64517 7.24063 2.63248 7.2295 2.62362 7.21589C2.61477 7.20228 2.61008 7.1867 2.61007 7.17082L2.61081 6.31901C2.61083 6.29608 2.61906 6.27383 2.63418 6.25575C2.64931 6.23768 2.67048 6.22482 2.69435 6.2192C10.1321 4.4855 17.5615 2.75385 24.9826 1.02425C25.1622 0.982548 25.3951 0.997588 25.5843 1.04681C27.2905 1.493 28.9346 1.91981 30.5165 2.32726C30.5416 2.33369 30.5637 2.34761 30.5795 2.36687C30.5953 2.38613 30.6038 2.40968 30.6038 2.43391L30.6045 3.1025C30.6045 3.19684 30.5557 3.25723 30.4581 3.28367L28.08 3.93517C28.0287 3.94884 28.0287 3.96343 28.08 3.97892L29.9813 4.55523C29.9998 4.56085 30.016 4.57175 30.0274 4.58636C30.0388 4.60098 30.0449 4.61855 30.0449 4.63658L30.0442 5.956C30.0442 5.98367 30.0348 6.0106 30.0174 6.03295C30 6.05529 29.9755 6.07191 29.9473 6.08042L28.0253 6.65741C27.9888 6.66835 27.9888 6.67929 28.0253 6.69022L29.7329 7.19543C29.7506 7.20065 29.766 7.21089 29.7769 7.22466C29.7878 7.23842 29.7936 7.255 29.7936 7.272L29.7913 9.09867C29.7914 9.11941 29.7848 9.13975 29.7725 9.15722C29.7601 9.17469 29.7426 9.18855 29.7218 9.19712L29.5555 9.26411C29.5107 9.28234 29.5114 9.29875 29.5577 9.31333L30.9579 9.75975C30.9702 9.76373 30.9809 9.77119 30.9884 9.78112C30.996 9.79104 31 9.80292 31 9.81512V10.8098C31 10.834 30.9879 10.8508 30.9638 10.8604L7.00931 19.9364C6.98514 19.9454 6.959 19.949 6.93313 19.9467C6.90726 19.9444 6.88242 19.9364 6.86073 19.9234L2.12661 17.0726C2.11341 17.0646 2.10253 17.0537 2.09493 17.041C2.08733 17.0282 2.08323 17.014 2.08299 16.9995L2.07264 15.7347C2.07239 15.7141 2.07947 15.6939 2.09281 15.6772C2.10615 15.6606 2.12502 15.6484 2.14657 15.6424L3.22291 15.3498C3.22644 15.3488 3.22959 15.3469 3.23197 15.3443C3.23435 15.3417 3.23587 15.3385 3.23633 15.3351C3.2368 15.3317 3.2362 15.3283 3.23461 15.3252C3.23301 15.3221 3.23049 15.3195 3.22734 15.3177L1.06727 14.0961C1.04674 14.0844 1.02978 14.068 1.018 14.0485C1.00623 14.029 1.00003 14.007 1 13.9846V11.8879C1.00006 11.8722 1.00586 11.857 1.01646 11.8447C1.02707 11.8324 1.04184 11.8238 1.0584 11.8202L3.33675 11.3355C3.37864 11.3264 3.38086 11.3125 3.3434 11.2938ZM3.17929 6.42497C4.50944 7.03979 5.83835 7.6562 7.16603 8.27421C7.36612 8.36718 7.5635 8.38815 7.75817 8.3371C15.2058 6.37233 22.6631 4.40346 30.1299 2.43049C30.161 2.42229 30.161 2.41431 30.1299 2.40656C28.5568 1.99957 26.9901 1.596 25.4298 1.19584C25.2962 1.16166 25.1619 1.16029 25.0269 1.19174C17.6828 2.89491 10.3396 4.59853 2.99744 6.3026C2.96392 6.31081 2.96245 6.3222 2.993 6.33678C3.0551 6.36686 3.1172 6.39626 3.17929 6.42497ZM10.778 7.70952C9.68784 7.99665 8.66547 8.26281 7.71086 8.50801C7.67636 8.51667 7.64186 8.52465 7.60736 8.53194C7.57681 8.53786 7.56153 8.55541 7.56153 8.58458V9.2771C7.56153 9.30764 7.5773 9.31858 7.60884 9.30992L30.3909 3.07242C30.3958 3.07108 30.4001 3.06829 30.4032 3.06446C30.4063 3.06064 30.4079 3.05599 30.4079 3.05123L30.4093 2.55286C30.4093 2.54238 30.4037 2.5385 30.3923 2.54124C24.0393 4.21615 17.5012 5.93891 10.778 7.70952ZM6.98566 12.7794L29.8172 5.8808C29.8404 5.87396 29.852 5.85892 29.852 5.83568L29.8571 4.78015C29.8571 4.75234 29.8428 4.74255 29.8143 4.75075C21.7259 7.07511 14.1731 9.23107 7.15568 11.2186C7.09999 11.2346 7.04233 11.2505 6.9827 11.2665C6.9551 11.2738 6.9413 11.2909 6.9413 11.3178L6.94056 12.7493C6.94056 12.7785 6.9556 12.7885 6.98566 12.7794ZM7.09285 8.40957C5.70159 7.76627 4.28003 7.10998 2.86585 6.45915L2.86041 6.45797L2.85503 6.45939L2.85109 6.46306L2.84959 6.46804L2.84885 7.06827C2.84885 7.07921 2.85402 7.08742 2.86437 7.09288L7.35528 9.29146C7.35818 9.29284 7.36142 9.29349 7.36469 9.29335C7.36795 9.2932 7.37114 9.29226 7.37395 9.29062C7.37676 9.28898 7.3791 9.28669 7.38074 9.28397C7.38239 9.28124 7.38337 9.27505 7.38337 9.27505L7.38411 8.53946C7.38411 8.51758 7.37253 8.50345 7.34937 8.49707C7.24045 8.46745 7.15495 8.43828 7.09285 8.40957ZM6.80307 13.0357L3.65167 11.4586C3.62949 11.4476 3.60608 11.4447 3.58144 11.4497L1.4088 11.9194C1.35163 11.9317 1.34892 11.9508 1.40067 11.9768C3.08516 12.8167 4.74526 13.6458 6.38096 14.4638C6.49037 14.5185 6.6286 14.5322 6.74688 14.4946C14.2852 12.0992 21.8176 9.70597 29.3441 7.31507C29.3988 7.29775 29.3988 7.28066 29.3441 7.26379L27.7296 6.75995C27.7173 6.75631 27.7049 6.75631 27.6926 6.75995L6.90434 13.0446C6.88777 13.0496 6.87025 13.0514 6.85283 13.0498C6.83542 13.0483 6.81848 13.0435 6.80307 13.0357ZM6.66113 14.6935C6.65627 14.6951 6.65207 14.6981 6.64915 14.702C6.64623 14.706 6.64473 14.7107 6.64487 14.7154V16.8791C6.64484 16.8828 6.64578 16.8865 6.64762 16.8897C6.64946 16.893 6.65214 16.8958 6.65542 16.8979C6.6587 16.9 6.66249 16.9013 6.66645 16.9017C6.67041 16.9021 6.67442 16.9017 6.67813 16.9003L29.5851 9.00501C29.5897 9.00335 29.5936 9.00044 29.5964 8.99665C29.5992 8.99287 29.6007 8.98839 29.6006 8.98382L29.6073 7.42308C29.6073 7.41948 29.6063 7.41593 29.6045 7.41274C29.6027 7.40954 29.6001 7.40679 29.5969 7.40472C29.5937 7.40264 29.5901 7.4013 29.5862 7.40081C29.5823 7.40032 29.5784 7.40069 29.5747 7.40189L6.66113 14.6935ZM6.50515 11.1899C5.00596 10.4632 3.50678 9.73104 1.95954 8.98861C1.92849 8.97357 1.91297 8.98223 1.91297 9.01459V10.2697C1.91297 10.2989 1.92677 10.3203 1.95436 10.334L6.71879 12.7349C6.75033 12.7509 6.76635 12.742 6.76684 12.7083V11.3034C6.76684 11.2729 6.75058 11.2544 6.71805 11.248C6.64487 11.2344 6.57168 11.222 6.50515 11.1899ZM7.05145 19.6444L30.8189 10.6444C30.8292 10.6407 30.8342 10.6337 30.8337 10.6232L30.8322 9.96552C30.8322 9.95869 30.8287 9.95664 30.8218 9.95937C22.9785 12.7541 15.1371 15.5481 7.29762 18.3414C7.2163 18.3708 7.12833 18.3797 7.04332 18.3948C7.01621 18.3998 7.00266 18.415 7.00266 18.4406L7.00192 19.6137C7.00192 19.6469 7.01843 19.6572 7.05145 19.6444ZM4.68809 13.811C3.54768 13.2372 2.40604 12.6634 1.26317 12.0896C1.25993 12.0879 1.25628 12.0871 1.25258 12.0871C1.24887 12.0872 1.24525 12.0881 1.24204 12.0898C1.23884 12.0915 1.23618 12.094 1.23431 12.0969C1.23244 12.0999 1.23143 12.1032 1.23138 12.1067V13.8848C1.23141 13.8955 1.23435 13.9059 1.23992 13.9151C1.24549 13.9243 1.25349 13.932 1.26317 13.9374L6.41866 16.8607C6.42192 16.8625 6.42565 16.8635 6.42946 16.8635C6.43327 16.8636 6.43703 16.8627 6.44034 16.8609C6.44365 16.8592 6.4464 16.8567 6.44831 16.8536C6.45022 16.8506 6.45121 16.8471 6.45119 16.8436L6.45192 14.7031C6.45192 14.6771 6.43862 14.6603 6.41201 14.6525C6.36814 14.6389 6.32699 14.6227 6.28855 14.604C5.80854 14.3706 5.27505 14.1063 4.68809 13.811ZM6.79789 18.379C6.66286 18.3248 6.57415 18.2858 6.53176 18.2621C5.13311 17.4773 3.73496 16.6907 2.33729 15.9022C2.33416 15.9005 2.33061 15.8997 2.32699 15.8997C2.32337 15.8996 2.31981 15.9005 2.31667 15.9022C2.31353 15.9038 2.31092 15.9062 2.30909 15.9091C2.30726 15.912 2.30628 15.9153 2.30624 15.9186V16.888C2.30624 16.9145 2.31807 16.935 2.34173 16.9495L6.78976 19.6267C6.78976 19.6267 6.79542 19.6293 6.79858 19.6294C6.80174 19.6295 6.80764 19.6274 6.80764 19.6274L6.81423 19.6214L6.81637 19.613L6.81268 18.3995C6.81268 18.39 6.80775 18.3831 6.79789 18.379Z" stroke="#001960" stroke-width="0.5"/>
</svg>
