<svg width="21" height="14" viewBox="0 0 21 14" fill="none" xmlns="http://www.w3.org/2000/svg">
<path d="M20 1H15.7157V3.46575C15.7157 4.37362 16.5497 5.10959 17.5784 5.10959H18.1373C19.166 5.10959 20 4.37362 20 3.46575V1Z" fill="#001960"/>
<path d="M20 1H1V3.46575C1 4.37362 1.83398 5.10959 2.86274 5.10959H18.1373M20 1V3.46575C20 4.37362 19.166 5.10959 18.1373 5.10959M20 1H15.7157V3.46575C15.7157 4.37362 16.5497 5.10959 17.5784 5.10959H18.1373M5.09804 5.10959V6.74734C5.09804 7.52083 5.53834 8.24259 6.27002 8.66846L8.30351 9.85208C9.03518 10.278 9.47549 10.9997 9.47549 11.7732V13H12.6422V11.1496C12.6422 10.3575 12.1806 9.62115 11.4204 9.20019L9.11395 7.9231C8.35369 7.50213 7.89216 6.76574 7.89216 5.97369V5.10959H5.09804Z" stroke="#001960"/>
</svg>
