<svg width="21" height="14" viewBox="0 0 21 14" fill="none" xmlns="http://www.w3.org/2000/svg">
<path d="M19.4 13C19.7314 13 20 12.7314 20 12.4V1.6C20 1.26863 19.7314 1 19.4 1H18.5678L17.6131 4.072H17.7672C18.1674 4.072 18.4554 4.45635 18.3431 4.84045L17.6131 7.336H17.7452C18.1519 7.336 18.4408 7.73205 18.3165 8.11929L17.6131 10.312H17.718C18.1325 10.312 18.4221 10.7223 18.2834 11.1128L17.6131 13H19.4Z" fill="#001960"/>
<path d="M2.14573 10.312L1.35602 12.1647C1.18732 12.5605 1.47773 13 1.90797 13H17.6131M2.14573 10.312H1.87392C1.45277 10.312 1.16267 9.88946 1.31399 9.49643L2.14573 7.336M2.14573 10.312H17.6131M17.6131 13H19.4C19.7314 13 20 12.7314 20 12.4V1.6C20 1.26863 19.7314 1 19.4 1H18.5678M17.6131 13L18.2834 11.1128C18.4221 10.7223 18.1325 10.312 17.718 10.312H17.6131M2.14573 7.336H1.8465C1.43296 7.336 1.1434 6.92747 1.28037 6.53728L2.14573 4.072M2.14573 7.336H17.6131M17.6131 10.312L18.3165 8.11929C18.4408 7.73205 18.1519 7.336 17.7452 7.336H17.6131M2.14573 4.072H1.86415C1.44568 4.072 1.15574 3.65442 1.30197 3.26233L2.00015 1.39033C2.08769 1.15562 2.31182 1 2.56232 1H18.5678M2.14573 4.072H17.6131M17.6131 7.336L18.3431 4.84045C18.4554 4.45635 18.1674 4.072 17.7672 4.072H17.6131M17.6131 4.072L18.5678 1" stroke="#001960"/>
</svg>
