<svg width="19" height="12" viewBox="0 0 19 12" fill="none" xmlns="http://www.w3.org/2000/svg">
<path d="M18.6071 10.9806H9.40953L12.7543 3.54719C13.1081 2.76097 14.2244 2.76097 14.5782 3.54719L16.9618 8.84458C17.0711 9.08771 17.3118 9.16966 17.499 9.02778C17.6864 8.88589 17.7496 8.57379 17.6402 8.33072L14.0054 0.252714C14.0043 0.250268 14.0029 0.248161 14.0018 0.245715C13.9952 0.231581 13.9881 0.21799 13.9805 0.20474C13.9782 0.200731 13.976 0.196721 13.9736 0.19278C13.9641 0.177151 13.954 0.162134 13.9431 0.148068L13.9391 0.143379C13.9293 0.131148 13.919 0.119663 13.9083 0.108791C13.9049 0.105326 13.9014 0.101996 13.8979 0.0987346C13.8881 0.0894252 13.8781 0.0807951 13.8676 0.0726408C13.8648 0.0703984 13.862 0.0680202 13.8591 0.0658457C13.8454 0.0558567 13.8313 0.046683 13.8167 0.0388685L13.815 0.038053C13.8013 0.0308501 13.7873 0.0247347 13.773 0.0195024C13.7691 0.0180754 13.7653 0.0169203 13.7614 0.0156971C13.7498 0.0119598 13.738 0.00890177 13.726 0.00652345C13.7218 0.00570802 13.7178 0.00475648 13.7136 0.00407696C13.6981 0.00163068 13.6823 0 13.6662 0H5.33368C5.194 0 5.06485 0.0962203 4.99446 0.252714L0.0535792 11.2333C-0.0173325 11.3909 -0.0179086 11.5857 0.0521652 11.744C0.122187 11.9023 0.252122 11.9999 0.392793 11.9999H4.92496L4.92617 12L4.92737 11.9999H6.80695L6.80816 12L6.80936 11.9999H8.72544H18.6072C18.8242 11.9999 19 11.7717 19 11.4903C19 11.2088 18.8241 10.9806 18.6071 10.9806ZM8.49988 10.9806H7.49104L11.1272 2.86241C11.2362 2.61901 11.1725 2.30711 10.985 2.1657C10.7975 2.02416 10.5569 2.10685 10.448 2.35026L6.58243 10.9806H5.60905L10.0707 1.01928H12.9821L8.49988 10.9806ZM5.55914 1.01928H7.34455L3.91685 8.67211C3.80787 8.91552 3.87155 9.22742 4.0591 9.36883C4.12121 9.41565 4.18908 9.43793 4.25612 9.43793C4.39145 9.43793 4.52322 9.34708 4.59607 9.18427L8.25321 1.01928H9.16218L4.70045 10.9806H1.07693L5.55914 1.01928Z" fill="#001960"/>
<path d="M5.55914 1.01928H7.34455L3.91685 8.67211C3.80787 8.91552 3.87155 9.22742 4.0591 9.36883C4.12121 9.41565 4.18908 9.43793 4.25612 9.43793C4.39145 9.43793 4.52322 9.34708 4.59607 9.18427L8.25321 1.01928H9.16218L4.70045 10.9806H1.07693L5.55914 1.01928Z" fill="#001960"/>
<path d="M8.49988 10.9806H7.49104L11.1272 2.86241C11.2362 2.61901 11.1725 2.30711 10.985 2.1657C10.7975 2.02416 10.5569 2.10685 10.448 2.35026L6.58243 10.9806H5.60905L10.0707 1.01928H12.9821L8.49988 10.9806Z" fill="#001960"/>
</svg>
