<svg width="30" height="19" viewBox="0 0 30 19" fill="none" xmlns="http://www.w3.org/2000/svg">
<path d="M29.3796 17.3379H14.8572L20.6663 4.42748C21.0201 3.64126 22.1364 3.64126 22.4902 4.42748L26.7818 13.9651C26.9544 14.349 27.3344 14.4784 27.63 14.2544C27.9258 14.0304 28.0256 13.5376 27.8529 13.1538L22.1138 0.399022C22.1121 0.39516 22.1099 0.391833 22.1081 0.38797C22.0977 0.365654 22.0865 0.344195 22.0745 0.323273C22.0708 0.316943 22.0674 0.310612 22.0637 0.304389C22.0485 0.279712 22.0326 0.256001 22.0154 0.233791L22.0091 0.226388C21.9937 0.207075 21.9774 0.188942 21.9605 0.171776C21.9552 0.166304 21.9496 0.161047 21.9441 0.155897C21.9286 0.141198 21.9127 0.127571 21.8963 0.114696C21.8917 0.111155 21.8874 0.1074 21.8827 0.103967C21.8611 0.0881949 21.8389 0.07371 21.8158 0.0613713L21.8131 0.0600837C21.7916 0.0487107 21.7694 0.0390548 21.7468 0.0307933C21.7407 0.0285402 21.7347 0.0267162 21.7286 0.0247849C21.7102 0.0188838 21.6916 0.0140554 21.6726 0.0103002C21.6661 0.00901267 21.6596 0.00751023 21.6531 0.0064373C21.6285 0.00257476 21.6036 0 21.5782 0H8.42159C8.20105 0 7.99713 0.151927 7.88599 0.399022L0.0845988 17.7368C-0.0273671 17.9856 -0.0282767 18.2932 0.0823661 18.5432C0.192926 18.7931 0.398087 18.9473 0.620199 18.9473H7.77626L7.77816 18.9474L7.78006 18.9473H10.7478L10.7497 18.9474L10.7516 18.9473H13.777H29.3798C29.7224 18.9473 30 18.587 30 18.1426C30 17.6982 29.7222 17.3379 29.3796 17.3379ZM13.4209 17.3379H11.828L17.5693 4.5196C17.7414 4.13528 17.6408 3.6428 17.3447 3.41953C17.0487 3.19604 16.6689 3.32661 16.4969 3.71094L10.3933 17.3379H8.85639L15.9011 1.60939H20.498L13.4209 17.3379ZM8.77759 1.60939H11.5967L6.18451 13.6928C6.01242 14.0771 6.11298 14.5696 6.4091 14.7929C6.50717 14.8668 6.61434 14.902 6.72019 14.902C6.93387 14.902 7.14192 14.7586 7.25695 14.5015L13.0314 1.60939H14.4666L7.42176 17.3379H1.70041L8.77759 1.60939Z" fill="#001960"/>
<path d="M8.77759 1.60939H11.5967L6.18451 13.6928C6.01242 14.0771 6.11298 14.5696 6.4091 14.7929C6.50717 14.8668 6.61434 14.902 6.72019 14.902C6.93387 14.902 7.14192 14.7586 7.25695 14.5015L13.0314 1.60939H14.4666L7.42176 17.3379H1.70041L8.77759 1.60939Z" fill="#001960"/>
<path d="M13.4209 17.3379H11.828L17.5693 4.5196C17.7414 4.13528 17.6408 3.6428 17.3447 3.41953C17.0487 3.19604 16.6689 3.32661 16.4969 3.71094L10.3933 17.3379H8.85639L15.9011 1.60939H20.498L13.4209 17.3379Z" fill="#001960"/>
</svg>
