<svg width="32" height="21" viewBox="0 0 32 21" fill="none" xmlns="http://www.w3.org/2000/svg">
<path d="M30.4 19.9474C30.7314 19.9474 31 19.6787 31 19.3474V1.6C31 1.26863 30.7314 1 30.4 1H28.7387L27.2312 5.85053H27.938C28.3382 5.85053 28.6263 6.23488 28.5139 6.61898L27.2312 11.0042H27.9161C28.3228 11.0042 28.6116 11.4003 28.4874 11.7875L27.2312 15.7032H27.8888C28.3033 15.7032 28.593 16.1134 28.4542 16.504L27.2312 19.9474H30.4Z" fill="#001960"/>
<path d="M2.80905 15.7032L1.35602 19.1121C1.18732 19.5079 1.47773 19.9474 1.90798 19.9474H27.2312M2.80905 15.7032H1.87392C1.45277 15.7032 1.16267 15.2806 1.31399 14.8876L2.80905 11.0042M2.80905 15.7032H27.2312M27.2312 19.9474H30.4C30.7314 19.9474 31 19.6787 31 19.3474V1.6C31 1.26863 30.7314 1 30.4 1H28.7387M27.2312 19.9474L28.4542 16.504C28.593 16.1134 28.3033 15.7032 27.8888 15.7032H27.2312M2.80905 11.0042H1.8465C1.43296 11.0042 1.1434 10.5957 1.28037 10.2055L2.80905 5.85053M2.80905 11.0042H27.2312M27.2312 15.7032L28.4874 11.7875C28.6116 11.4003 28.3228 11.0042 27.9161 11.0042H27.2312M2.80905 5.85053H1.86415C1.44568 5.85053 1.15574 5.43294 1.30197 5.04086L2.66347 1.39033C2.751 1.15562 2.97514 1 3.22564 1H28.7387M2.80905 5.85053H27.2312M27.2312 11.0042L28.5139 6.61898C28.6263 6.23488 28.3382 5.85053 27.938 5.85053H27.2312M27.2312 5.85053L28.7387 1" stroke="#001960"/>
</svg>
