<svg width="21" height="14" viewBox="0 0 21 14" fill="none" xmlns="http://www.w3.org/2000/svg">
<path d="M1.71512 11.0056C1.61955 10.7798 1.5236 10.5449 1.45027 10.302C1.3499 9.96938 1.2728 9.68546 1.21897 9.45019C1.17424 9.25471 1.12965 9.01258 1.08518 8.72379C0.979088 8.0356 0.954905 7.27743 1.11288 6.60384C1.19557 6.25309 1.43272 5.76968 1.78299 5.70571C1.84045 5.69513 1.89688 5.68139 1.95227 5.6645C6.98291 4.13128 12.0136 2.59863 17.0442 1.06655C17.5938 0.899115 18.228 1.05453 18.6695 1.45508C19.1372 1.8801 19.5167 2.41416 19.7176 3.05041C19.8218 3.38098 19.9228 3.73302 19.9727 4.08119C20.0156 4.37956 19.9942 4.69125 19.9977 4.99219C20.0024 5.38931 19.9091 5.83022 19.7601 6.1741C19.6975 6.31863 19.6174 6.4553 19.5199 6.58409C19.3381 6.82393 19.1168 6.99409 18.856 7.09455C13.861 9.01902 8.86609 10.9438 3.87133 12.8688C3.81724 12.8897 3.76329 12.9135 3.70946 12.9401C3.15597 13.2144 2.5159 12.4824 2.2491 12.0441C2.04419 11.7078 1.8662 11.3616 1.71512 11.0056ZM18.5003 1.51733C18.2159 1.27777 17.8317 1.16658 17.4721 1.15971C17.3392 1.15742 17.0885 1.21237 16.7201 1.32457C11.9011 2.79339 7.0816 4.26107 2.26158 5.72761C2.23012 5.73734 2.22934 5.74922 2.25924 5.76324C2.41916 5.83794 2.56829 5.94856 2.70663 6.0951C3.14583 6.56048 3.46216 7.13877 3.71219 7.77458C4.00967 8.52989 4.21445 9.32598 4.32652 10.1629C4.40804 10.7695 4.40492 11.41 4.29025 11.996C4.25852 12.1592 4.18246 12.3591 4.06207 12.5958C4.05245 12.6147 4.05687 12.6205 4.07533 12.6134C8.96685 10.7198 13.865 8.82668 18.7698 6.93398C18.9617 6.86014 19.1251 6.76827 19.2714 6.61457C19.5125 6.36099 19.6717 6.05689 19.7492 5.70228C19.8181 5.38659 19.854 5.04214 19.8569 4.66892C19.8584 4.49548 19.8354 4.33234 19.821 4.16577C19.7976 3.90517 19.7188 3.63857 19.6537 3.38141C19.462 2.62496 19.0775 2.0036 18.5003 1.51733ZM3.5948 12.7963C3.92415 12.6923 4.145 12.228 4.20876 11.5053C4.27252 10.7826 4.17397 9.86085 3.93479 8.94278C3.81636 8.4882 3.66697 8.04821 3.49515 7.64792C3.32333 7.24764 3.13244 6.89491 2.93339 6.60986C2.73433 6.32482 2.53101 6.11304 2.33503 5.98663C2.13904 5.86022 1.95424 5.82165 1.79116 5.87312C1.46181 5.97707 1.24096 6.44146 1.1772 7.16413C1.11344 7.8868 1.21199 8.80856 1.45117 9.72663C1.5696 10.1812 1.71899 10.6212 1.89081 11.0215C2.06263 11.4218 2.25352 11.7745 2.45257 12.0596C2.65163 12.3446 2.85495 12.5564 3.05093 12.6828C3.24692 12.8092 3.43173 12.8478 3.5948 12.7963Z" fill="#003B81"/>
<path d="M3.91229 11.0859C3.89473 11.4044 3.78084 11.9192 3.47816 12.0686C3.24256 12.1845 3.02257 12.0999 2.82794 11.9222C2.68232 11.7894 2.5536 11.6335 2.44179 11.4547C2.02638 10.7914 1.75841 9.998 1.59849 9.21364C1.49422 8.70047 1.45196 8.18787 1.47172 7.67584C1.48525 7.32609 1.55702 7.0436 1.68703 6.82837C1.955 6.38532 2.37392 6.55018 2.65593 6.85842C2.86707 7.08968 3.04819 7.36673 3.19927 7.68958C3.68645 8.73152 3.97625 9.91042 3.91229 11.0859ZM3.48245 9.22738C3.31902 8.58512 3.10059 7.98065 2.77021 7.43542C2.65554 7.24595 2.5211 7.08467 2.3669 6.95158C2.26509 6.86357 2.06968 6.77857 1.955 6.88805C1.70732 7.1246 1.70537 7.68485 1.71122 8.02015C1.72006 8.54506 1.79677 9.07454 1.94135 9.60861C2.13989 10.341 2.40122 11.0335 2.84432 11.5732C2.91687 11.6619 2.99917 11.7344 3.09122 11.7908C3.27767 11.9053 3.42121 11.8618 3.52184 11.6603C3.61832 11.4671 3.67006 11.233 3.67708 10.9579C3.69191 10.3724 3.62703 9.7955 3.48245 9.22738Z" fill="#003B81"/>
<path d="M3.48245 9.22738C3.31902 8.58512 3.10059 7.98065 2.77021 7.43542C2.65554 7.24595 2.5211 7.08467 2.3669 6.95158C2.26509 6.86357 2.06968 6.77857 1.955 6.88805C1.70732 7.1246 1.70537 7.68485 1.71122 8.02015C1.72006 8.54506 1.79677 9.07454 1.94135 9.60861C2.13989 10.341 2.40122 11.0335 2.84432 11.5732C2.91687 11.6619 2.99917 11.7344 3.09122 11.7908C3.27767 11.9053 3.42121 11.8618 3.52184 11.6603C3.61832 11.4671 3.67006 11.233 3.67708 10.9579C3.69191 10.3724 3.62703 9.7955 3.48245 9.22738Z" fill="#001960"/>
<path fill-rule="evenodd" clip-rule="evenodd" d="M3.5948 12.7963C3.92415 12.6923 4.145 12.228 4.20876 11.5053C4.27252 10.7826 4.17397 9.86085 3.93479 8.94278C3.81636 8.4882 3.66697 8.04821 3.49515 7.64792C3.32333 7.24764 3.13244 6.89491 2.93339 6.60986C2.73433 6.32482 2.53101 6.11304 2.33503 5.98663C2.13904 5.86022 1.95424 5.82165 1.79116 5.87312C1.46181 5.97707 1.24096 6.44146 1.1772 7.16413C1.11344 7.8868 1.21199 8.80856 1.45117 9.72663C1.5696 10.1812 1.71899 10.6212 1.89081 11.0215C2.06263 11.4218 2.25352 11.7745 2.45257 12.0596C2.65163 12.3446 2.85495 12.5564 3.05093 12.6828C3.24692 12.8092 3.43173 12.8478 3.5948 12.7963ZM3.47816 12.0686C3.78084 11.9192 3.89473 11.4044 3.91229 11.0859C3.97625 9.91042 3.68645 8.73152 3.19927 7.68958C3.04819 7.36673 2.86707 7.08968 2.65593 6.85842C2.37392 6.55018 1.955 6.38532 1.68703 6.82837C1.55702 7.0436 1.48525 7.32609 1.47172 7.67584C1.45196 8.18787 1.49422 8.70047 1.59849 9.21364C1.75841 9.998 2.02638 10.7914 2.44179 11.4547C2.5536 11.6335 2.68232 11.7894 2.82794 11.9222C3.02257 12.0999 3.24256 12.1845 3.47816 12.0686Z" fill="#001960"/>
<path d="M1.71512 11.0056C1.61955 10.7798 1.5236 10.5449 1.45027 10.302C1.3499 9.96938 1.2728 9.68546 1.21897 9.45019C1.17424 9.25471 1.12965 9.01258 1.08518 8.72379C0.979088 8.0356 0.954905 7.27743 1.11288 6.60384C1.19557 6.25309 1.43272 5.76968 1.78299 5.70571C1.84045 5.69513 1.89688 5.68139 1.95227 5.6645C6.98291 4.13128 12.0136 2.59863 17.0442 1.06655C17.5938 0.899115 18.228 1.05453 18.6695 1.45508C19.1372 1.8801 19.5167 2.41416 19.7176 3.05041C19.8218 3.38098 19.9228 3.73302 19.9727 4.08119C20.0156 4.37956 19.9942 4.69125 19.9977 4.99219C20.0024 5.38931 19.9091 5.83022 19.7601 6.1741C19.6975 6.31863 19.6174 6.4553 19.5199 6.58409C19.3381 6.82393 19.1168 6.99409 18.856 7.09455C13.861 9.01902 8.86609 10.9438 3.87133 12.8688C3.81724 12.8897 3.76329 12.9135 3.70946 12.9401C3.15597 13.2144 2.5159 12.4824 2.2491 12.0441C2.04419 11.7078 1.8662 11.3616 1.71512 11.0056ZM18.5003 1.51733C18.2159 1.27777 17.8317 1.16658 17.4721 1.15971C17.3392 1.15742 17.0885 1.21237 16.7201 1.32457C11.9011 2.79339 7.0816 4.26107 2.26158 5.72761C2.23012 5.73734 2.22934 5.74922 2.25924 5.76324C2.41916 5.83794 2.56829 5.94856 2.70663 6.0951C3.14583 6.56048 3.46216 7.13877 3.71219 7.77458C4.00967 8.52989 4.21445 9.32598 4.32652 10.1629C4.40804 10.7695 4.40492 11.41 4.29025 11.996C4.25852 12.1592 4.18246 12.3591 4.06207 12.5958C4.05245 12.6147 4.05687 12.6205 4.07533 12.6134C8.96685 10.7198 13.865 8.82668 18.7698 6.93398C18.9617 6.86014 19.1251 6.76827 19.2714 6.61457C19.5125 6.36099 19.6717 6.05689 19.7492 5.70228C19.8181 5.38659 19.854 5.04214 19.8569 4.66892C19.8584 4.49548 19.8354 4.33234 19.821 4.16577C19.7976 3.90517 19.7188 3.63857 19.6537 3.38141C19.462 2.62496 19.0775 2.0036 18.5003 1.51733ZM3.5948 12.7963C3.92415 12.6923 4.145 12.228 4.20876 11.5053C4.27252 10.7826 4.17397 9.86085 3.93479 8.94278C3.81636 8.4882 3.66697 8.04821 3.49515 7.64792C3.32333 7.24764 3.13244 6.89491 2.93339 6.60986C2.73433 6.32482 2.53101 6.11304 2.33503 5.98663C2.13904 5.86022 1.95424 5.82165 1.79116 5.87312C1.46181 5.97707 1.24096 6.44146 1.1772 7.16413C1.11344 7.8868 1.21199 8.80856 1.45117 9.72663C1.5696 10.1812 1.71899 10.6212 1.89081 11.0215C2.06263 11.4218 2.25352 11.7745 2.45257 12.0596C2.65163 12.3446 2.85495 12.5564 3.05093 12.6828C3.24692 12.8092 3.43173 12.8478 3.5948 12.7963Z" stroke="#001960" stroke-width="0.7"/>
<path d="M3.91229 11.0859C3.89473 11.4044 3.78084 11.9192 3.47816 12.0686C3.24256 12.1845 3.02257 12.0999 2.82794 11.9222C2.68232 11.7894 2.5536 11.6335 2.44179 11.4547C2.02638 10.7914 1.75841 9.998 1.59849 9.21364C1.49422 8.70047 1.45196 8.18787 1.47172 7.67584C1.48525 7.32609 1.55702 7.0436 1.68703 6.82837C1.955 6.38532 2.37392 6.55018 2.65593 6.85842C2.86707 7.08968 3.04819 7.36673 3.19927 7.68958C3.68645 8.73152 3.97625 9.91042 3.91229 11.0859ZM3.48245 9.22738C3.31902 8.58512 3.10059 7.98065 2.77021 7.43542C2.65554 7.24595 2.5211 7.08467 2.3669 6.95158C2.26509 6.86357 2.06968 6.77857 1.955 6.88805C1.70732 7.1246 1.70537 7.68485 1.71122 8.02015C1.72006 8.54506 1.79677 9.07454 1.94135 9.60861C2.13989 10.341 2.40122 11.0335 2.84432 11.5732C2.91687 11.6619 2.99917 11.7344 3.09122 11.7908C3.27767 11.9053 3.42121 11.8618 3.52184 11.6603C3.61832 11.4671 3.67006 11.233 3.67708 10.9579C3.69191 10.3724 3.62703 9.7955 3.48245 9.22738Z" stroke="#001960" stroke-width="0.7"/>
<path d="M3.48245 9.22738C3.31902 8.58512 3.10059 7.98065 2.77021 7.43542C2.65554 7.24595 2.5211 7.08467 2.3669 6.95158C2.26509 6.86357 2.06968 6.77857 1.955 6.88805C1.70732 7.1246 1.70537 7.68485 1.71122 8.02015C1.72006 8.54506 1.79677 9.07454 1.94135 9.60861C2.13989 10.341 2.40122 11.0335 2.84432 11.5732C2.91687 11.6619 2.99917 11.7344 3.09122 11.7908C3.27767 11.9053 3.42121 11.8618 3.52184 11.6603C3.61832 11.4671 3.67006 11.233 3.67708 10.9579C3.69191 10.3724 3.62703 9.7955 3.48245 9.22738Z" stroke="#001960" stroke-width="0.7"/>
<path fill-rule="evenodd" clip-rule="evenodd" d="M3.5948 12.7963C3.92415 12.6923 4.145 12.228 4.20876 11.5053C4.27252 10.7826 4.17397 9.86085 3.93479 8.94278C3.81636 8.4882 3.66697 8.04821 3.49515 7.64792C3.32333 7.24764 3.13244 6.89491 2.93339 6.60986C2.73433 6.32482 2.53101 6.11304 2.33503 5.98663C2.13904 5.86022 1.95424 5.82165 1.79116 5.87312C1.46181 5.97707 1.24096 6.44146 1.1772 7.16413C1.11344 7.8868 1.21199 8.80856 1.45117 9.72663C1.5696 10.1812 1.71899 10.6212 1.89081 11.0215C2.06263 11.4218 2.25352 11.7745 2.45257 12.0596C2.65163 12.3446 2.85495 12.5564 3.05093 12.6828C3.24692 12.8092 3.43173 12.8478 3.5948 12.7963ZM3.47816 12.0686C3.78084 11.9192 3.89473 11.4044 3.91229 11.0859C3.97625 9.91042 3.68645 8.73152 3.19927 7.68958C3.04819 7.36673 2.86707 7.08968 2.65593 6.85842C2.37392 6.55018 1.955 6.38532 1.68703 6.82837C1.55702 7.0436 1.48525 7.32609 1.47172 7.67584C1.45196 8.18787 1.49422 8.70047 1.59849 9.21364C1.75841 9.998 2.02638 10.7914 2.44179 11.4547C2.5536 11.6335 2.68232 11.7894 2.82794 11.9222C3.02257 12.0999 3.24256 12.1845 3.47816 12.0686Z" stroke="#001960" stroke-width="0.7"/>
</svg>
