<svg width="18" height="18" viewBox="0 0 18 18" fill="none" xmlns="http://www.w3.org/2000/svg">
<path fill-rule="evenodd" clip-rule="evenodd" d="M9.55573 13.8027L11.3312 12.0273C11.6738 11.6846 12.2128 11.6369 12.6103 11.9142L14.9584 13.5519C15.416 13.871 15.474 14.5262 15.0795 14.9207C14.4429 15.5572 13.5288 15.8336 12.6758 15.5459C11.0903 15.0112 8.42442 13.8552 6.19644 11.6272C3.96845 9.39924 2.81247 6.73339 2.27774 5.14787C1.99006 4.29487 2.26647 3.38073 2.90302 2.74419C3.2975 2.3497 3.95267 2.40763 4.27182 2.86522L5.90951 5.21335C6.18672 5.61082 6.13906 6.14985 5.7964 6.49251L4.02097 8.26794" fill="#001960"/>
<path d="M9.55573 13.8027L11.3312 12.0273C11.6738 11.6846 12.2128 11.6369 12.6103 11.9142L14.9584 13.5519C15.416 13.871 15.474 14.5262 15.0795 14.9207V14.9207C14.4429 15.5572 13.5288 15.8336 12.6758 15.5459C11.0903 15.0112 8.42442 13.8552 6.19644 11.6272C3.96845 9.39924 2.81247 6.73339 2.27774 5.14787C1.99006 4.29487 2.26647 3.38073 2.90302 2.74419V2.74419C3.2975 2.3497 3.95267 2.40764 4.27182 2.86522L5.90951 5.21335C6.18672 5.61082 6.13906 6.14985 5.7964 6.49251L4.02097 8.26794" stroke="#001960" stroke-linecap="round"/>
</svg>
