<svg width="48" height="28" viewBox="0 0 48 28" fill="none" xmlns="http://www.w3.org/2000/svg">
<path d="M46.5108 6.14049C46.052 4.46206 45.0497 2.97729 43.6563 1.91201C43.1108 1.49715 42.4749 1.21304 41.7988 1.08213C41.1227 0.95122 40.425 0.977091 39.7608 1.1577L3.02028 11.174C2.94671 11.174 2.87314 11.1885 2.79957 11.2176C0.908835 11.7543 0.437994 15.6274 1.72178 20.0408C2.91728 24.1024 5.12437 27 6.94153 27H7.14385C7.22228 26.9925 7.29985 26.9779 7.37559 26.9565C7.50386 26.917 7.62725 26.8635 7.74343 26.7969L44.1603 14.2094H44.1824C45.3815 13.8177 46.2828 12.8096 46.7168 11.3554C47.1549 9.63337 47.0835 7.82367 46.5108 6.14049ZM2.07492 19.9211C0.912519 15.932 1.25462 12.1858 2.81061 11.5802L3.10121 11.5004H3.24834C4.85951 11.5004 7.00774 14.4016 8.11496 18.213C9.22218 22.0245 8.96837 25.6002 7.60366 26.4452L7.12545 26.6083C5.49221 26.8404 3.22628 23.8667 2.07492 19.9284V19.9211ZM46.3563 11.2176C45.948 12.592 45.102 13.5313 43.98 13.8649L8.37981 26.1804C9.39139 24.7298 9.48335 21.6038 8.46074 18.1187C7.42709 14.5648 5.60993 11.903 3.95461 11.2865L39.8565 1.49496C40.4675 1.32993 41.1091 1.30759 41.7304 1.42971C42.3517 1.55184 42.9356 1.81507 43.4356 2.1985C44.7619 3.21687 45.715 4.63398 46.1503 6.23477C46.7006 7.84341 46.7721 9.57376 46.3563 11.2212V11.2176Z" fill="#001960"/>
<path fill-rule="evenodd" clip-rule="evenodd" d="M7.61639 18.6178C8.71163 22.3401 8.43037 25.6051 6.98818 25.9104C5.54599 26.2157 3.489 23.4457 2.39375 19.7234C1.29851 16.0011 1.57977 12.7361 3.02196 12.4308C4.46415 12.1255 6.52115 14.8956 7.61639 18.6178ZM7.00036 25.6395C8.24897 25.3055 8.38026 22.1403 7.29361 18.5698C6.20696 14.9993 4.31386 12.3756 3.06525 12.7096C1.81664 13.0436 1.68535 16.2088 2.772 19.7793C3.85865 23.3498 5.75175 25.9735 7.00036 25.6395Z" fill="#001960"/>
<path d="M46.5108 6.14049C46.052 4.46206 45.0497 2.97729 43.6563 1.91201C43.1108 1.49715 42.4749 1.21304 41.7988 1.08213C41.1227 0.95122 40.425 0.977091 39.7608 1.1577L3.02028 11.174C2.94671 11.174 2.87314 11.1885 2.79957 11.2176C0.908835 11.7543 0.437994 15.6274 1.72178 20.0408C2.91728 24.1024 5.12437 27 6.94153 27H7.14385C7.22228 26.9925 7.29985 26.9779 7.37559 26.9565C7.50386 26.917 7.62725 26.8635 7.74343 26.7969L44.1603 14.2094H44.1824C45.3815 13.8177 46.2828 12.8096 46.7168 11.3554C47.1549 9.63337 47.0835 7.82367 46.5108 6.14049ZM2.07492 19.9211C0.912519 15.932 1.25462 12.1858 2.81061 11.5802L3.10121 11.5004H3.24834C4.85951 11.5004 7.00774 14.4016 8.11496 18.213C9.22218 22.0245 8.96837 25.6002 7.60366 26.4452L7.12545 26.6083C5.49221 26.8404 3.22628 23.8667 2.07492 19.9284V19.9211ZM46.3563 11.2176C45.948 12.592 45.102 13.5313 43.98 13.8649L8.37981 26.1804C9.39139 24.7298 9.48335 21.6038 8.46074 18.1187C7.42709 14.5648 5.60993 11.903 3.95461 11.2865L39.8565 1.49496C40.4675 1.32993 41.1091 1.30759 41.7304 1.42971C42.3517 1.55184 42.9356 1.81507 43.4356 2.1985C44.7619 3.21687 45.715 4.63398 46.1503 6.23477C46.7006 7.84341 46.7721 9.57376 46.3563 11.2212V11.2176Z" stroke="#001960" stroke-width="0.2"/>
<path fill-rule="evenodd" clip-rule="evenodd" d="M7.61639 18.6178C8.71163 22.3401 8.43037 25.6051 6.98818 25.9104C5.54599 26.2157 3.489 23.4457 2.39375 19.7234C1.29851 16.0011 1.57977 12.7361 3.02196 12.4308C4.46415 12.1255 6.52115 14.8956 7.61639 18.6178ZM7.00036 25.6395C8.24897 25.3055 8.38026 22.1403 7.29361 18.5698C6.20696 14.9993 4.31386 12.3756 3.06525 12.7096C1.81664 13.0436 1.68535 16.2088 2.772 19.7793C3.85865 23.3498 5.75175 25.9735 7.00036 25.6395Z" stroke="#001960" stroke-width="0.2"/>
</svg>
