<svg width="48" height="28" viewBox="0 0 48 28" fill="none" xmlns="http://www.w3.org/2000/svg">
<path d="M13.204 12.6074H17.898M30.1015 12.6074H34.7955M13.204 23.007H17.898M30.1015 23.007H34.7955M13.2043 14V4.34286L7.10217 1L1 4.34286V27H13.2043V21.5833M13.2043 14H17.8976M13.2043 14V21.5833M17.8976 14V4.34286L23.9998 1L30.1019 4.34286V14M17.8976 14V21.5833M30.1019 14H34.7957M30.1019 14V21.5833M34.7957 14V4.34286L40.8978 1L47 4.34286V27H34.7957V21.5833M34.7957 14V21.5833M34.7957 21.5833H30.1019M30.1019 21.5833V27H17.8976V21.5833M17.8976 21.5833H13.2043" stroke="#001960" stroke-width="0.5"/>
</svg>
