<svg width="47" height="28" viewBox="0 0 47 28" fill="none" xmlns="http://www.w3.org/2000/svg">
<path d="M2.77387 21.176L0.408651 26.142C0.219011 26.5402 0.509328 27 0.950349 27H40.2211M2.77387 21.176H0.911277C0.480175 21.176 0.189754 20.7349 0.360115 20.3389L2.77387 14.728M2.77387 21.176H40.2211M40.2211 27H45.4C45.7314 27 46 26.7314 46 26.4V1.6C46 1.26863 45.7314 1 45.4 1H42.5327M40.2211 27L42.2067 21.9973C42.363 21.6034 42.0728 21.176 41.649 21.176H40.2211M2.77387 14.728H0.879842C0.457083 14.728 0.166903 14.3025 0.321273 13.9089L2.77387 7.656M2.77387 14.728H40.2211M40.2211 21.176L42.245 15.5305C42.3851 15.1396 42.0954 14.728 41.6802 14.728H40.2211M2.77387 7.656H0.900066C0.471901 7.656 0.181531 7.22041 0.346237 6.82519L2.62001 1.36919C2.71318 1.14562 2.93163 1 3.17384 1H42.5327M2.77387 7.656H40.2211M40.2211 14.728L42.2756 8.44241C42.4024 8.05454 42.1134 7.656 41.7053 7.656H40.2211M40.2211 7.656L42.5327 1" stroke="#001960" stroke-width="0.5"/>
</svg>
