<svg width="48" height="28" viewBox="0 0 48 28" fill="none" xmlns="http://www.w3.org/2000/svg">
<path d="M3.32584 7.70478V14.2882L7.58989 16.4096M3.32584 7.70478L9.30197 9.94983M3.32584 7.70478L31.7851 1L37.1475 2.24387M9.30197 17.2614V9.94983M9.30197 17.2614L7.58989 16.4096M9.30197 17.2614L10.4972 16.776M9.30197 9.94983L37.1475 2.24387M37.1475 2.24387V5.15636M37.1475 5.15636L10.4972 12.9837M37.1475 5.15636L41.1208 4.03384L44.6419 5.15636M10.4972 12.9837L14.7289 14.6523M10.4972 12.9837V16.776M14.7289 20.0222L10.4972 17.8378V16.776M14.7289 20.0222V14.6523M14.7289 20.0222L42.8006 9.43099M14.7289 14.6523L44.6419 5.15636M44.6419 5.15636V8.73629L42.8006 9.43099M7.58989 16.4096L1 18.2929M1 18.2929V20.0222L11.111 25.3617M1 18.2929L11.111 23.4807M11.111 25.3617V23.4807M11.111 25.3617L13.4045 24.4513M11.111 23.4807L45.3525 10.4352M45.3525 10.4352L42.8006 9.43099M45.3525 10.4352V11.7701L44.2865 12.1933M15.1489 23.7589L17.8624 25.21M15.1489 23.7589L13.4045 24.4513M15.1489 23.7589L44.2865 12.1933M17.8624 25.21V27M17.8624 25.21L47 13.1657M17.8624 27L13.4045 24.4513M17.8624 27L47 14.2882V13.1657M47 13.1657L44.2865 12.1933" stroke="#001960" stroke-width="0.5"/>
</svg>
