<svg width="47" height="28" viewBox="0 0 47 28" fill="none" xmlns="http://www.w3.org/2000/svg">
<path d="M43.4433 19.6798L34.1959 1M34.1959 1H23.8814M34.1959 1L31.4123 6.6571M47 26.0583H21.866M21.866 26.0583L25.2474 19.1862M21.866 26.0583C21.866 26.0583 19.8228 27.1412 18.48 26.8936C17.6959 26.749 16.6495 26.0583 16.6495 26.0583M23.8814 1H18.7242M23.8814 1L21.1843 6.4293M11.433 26.0583L15.3373 18.1991M11.433 26.0583C11.433 26.0583 9.28302 27.208 7.9 26.8936C7.17323 26.7283 6.21649 26.0583 6.21649 26.0583M11.433 26.0583C11.433 26.0583 12.2945 26.7081 12.96 26.8936C14.3796 27.2892 16.6495 26.0583 16.6495 26.0583M18.7242 1H17.2702C15.0002 1 12.9245 2.2811 11.9069 4.31024L1 26.0583C1 26.0583 1.77215 26.6905 2.38 26.8936C3.82591 27.3767 6.21649 26.0583 6.21649 26.0583M18.7242 1L16.0537 6.4293M8.88294 10.3399H14.1302M16.6495 26.0583L19.9268 19.1862M28.6 1L25.9021 6.6571M14.1302 10.3399L16.0537 6.4293M14.1302 10.3399L10.1733 18.1991M21.1843 6.4293H16.0537M21.1843 6.4293L18.2608 12.3142M6.21649 26.0583L10.1733 18.1991M10.1733 18.1991H15.3373M15.3373 18.1991L18.2608 12.3142M18.2608 12.3142H23.2042M23.2042 12.3142L25.9021 6.6571M23.2042 12.3142L19.9268 19.1862M25.9021 6.6571H31.4123M31.4123 6.6571L25.2474 19.1862M19.9268 19.1862H25.2474M25.84 23.7613L32.3778 10.2004C33.108 8.68586 35.2677 8.69357 35.987 10.2133L42.4 23.7613H25.84Z" stroke="#001960" stroke-width="0.5"/>
</svg>
