<svg width="22" height="21" viewBox="0 0 22 21" fill="none" xmlns="http://www.w3.org/2000/svg">
<path d="M4.18265 2.80603L4.81853 2.80549L5.41199 2.80469C5.84794 2.81686 6.14174 3.03998 6.29339 3.47403C6.3602 3.68711 6.40531 3.89966 6.42871 4.11167L6.5911 5.29054C6.5924 5.29967 6.59719 5.30424 6.60548 5.30424L7.23917 5.30289L7.82946 5.30504L8.47241 5.30424L9.06294 5.30343H9.68761L10.314 5.30397L10.8935 5.30343L11.4887 5.30397L12.1297 5.30316L12.7022 5.3037L13.3644 5.30316L13.9179 5.30343H14.5721L15.156 5.30424L15.7846 5.30343L16.3556 5.30397L16.9954 5.30531C17.2 5.29528 17.4017 5.30647 17.6003 5.33888C17.8051 5.37112 17.979 5.45626 18.1221 5.59432C18.2649 5.73238 18.3355 5.9161 18.3337 6.14548C18.3308 6.35498 18.2844 6.5242 18.2169 6.7294L17.118 10.1865L17.028 10.4717C16.8054 11.0412 16.5143 11.4387 15.9053 11.4569C15.4959 11.469 15.058 11.4556 14.6435 11.4596C14.1893 11.4642 13.735 11.4543 13.2813 11.4607C13.0119 11.4645 12.7427 11.4659 12.4735 11.465C11.7745 11.4629 11.0756 11.4613 10.3766 11.4604C9.53205 11.4594 8.68583 11.4596 7.83799 11.4612L7.68877 11.4596C7.67951 11.4596 7.67561 11.4646 7.67707 11.4747L7.87993 12.866L7.89066 12.9861C7.89147 12.9954 7.8961 13 7.90455 13C10.4313 13.0062 12.958 13 15.4847 12.9998C15.6703 12.9998 15.8208 13.0035 15.9362 13.011C16.0692 13.0323 16.1884 13.0833 16.2939 13.1639C16.4002 13.2692 16.4621 13.3936 16.4795 13.5372C16.5051 13.7593 16.4847 13.9627 16.418 14.1475L16.3427 14.3153C16.1881 14.5152 15.9972 14.5506 15.769 14.5428L12.8078 14.5431H10.8031L10.2972 14.5428L9.6564 14.5431L9.07586 14.5428L8.40804 14.5431C8.13025 14.5429 7.85181 14.5425 7.57272 14.5418C7.00413 14.5404 6.70301 14.0175 6.5338 13.4975C6.46017 13.2577 6.41295 13.0708 6.39214 12.9366C6.32997 12.5356 6.24561 12.1129 6.18368 11.7403C6.06745 11.042 5.94839 10.3445 5.82648 9.64796L5.68555 8.80699L5.57047 8.13093L5.10916 5.46754L4.98945 4.79014C4.98876 4.78639 4.98692 4.78301 4.98425 4.78061C4.98158 4.7782 4.97824 4.77692 4.97482 4.77698L4.78561 4.7794L4.15388 4.77967C3.81789 4.7794 3.52506 4.81351 3.28246 4.50302C3.21127 4.41196 3.10765 4.25134 3.09253 4.12268C3.09269 3.82884 3.09245 3.53518 3.0918 3.24169C3.0918 3.17812 3.10789 3.12629 3.14007 3.08618C3.26979 2.92484 3.42168 2.83405 3.59577 2.81382L4.18265 2.80603ZM7.03314 7.46509L7.45715 9.88808C7.45877 9.89704 7.46373 9.90151 7.47202 9.90151L7.8592 9.90232L8.44559 9.90312L10.2813 9.90796L10.8904 9.90876L11.4953 9.91038L12.1119 9.90984H12.7188L13.3271 9.90957L13.9569 9.9144L14.556 9.91467L15.5688 9.91575C15.5748 9.91574 15.5807 9.9137 15.5856 9.90992C15.5906 9.90613 15.5944 9.90076 15.5966 9.89453L16.2095 8.10461L16.6367 6.85376C16.6409 6.84105 16.6369 6.83469 16.6245 6.83469C15.7281 6.83272 14.828 6.82932 13.9242 6.82448C13.9198 6.82914 13.9139 6.83013 13.9064 6.82744L13.3025 6.82126L11.5026 6.81777L10.8653 6.81374L9.04075 6.80891L8.34148 6.80837L7.82166 6.80353L7.22674 6.80085L6.9305 6.79736C6.92221 6.79736 6.91879 6.80183 6.92025 6.81079L7.03314 7.46509Z" fill="white"/>
<path d="M9.27641 15.6428L9.39913 15.7848C9.81479 16.3481 9.82722 17.0756 9.42643 17.6501L9.24645 17.8592C9.04139 18.0448 8.82124 18.1572 8.586 18.1962C7.91935 18.3069 7.3024 17.829 7.11665 17.1151C6.99104 16.6329 7.11709 16.1277 7.4178 15.7446L7.57914 15.5791C8.09311 15.1592 8.78662 15.1748 9.27641 15.6428Z" fill="white"/>
<path d="M15.5416 15.3873C15.9431 15.583 16.2013 15.9248 16.3162 16.4128C16.3519 16.6056 16.3556 16.8024 16.3273 17.0034C16.2174 17.5328 15.9428 17.901 15.5036 18.1082C14.4694 18.5609 13.4149 17.4586 13.7632 16.2756C14.0102 15.4361 14.8209 15.078 15.5416 15.3873Z" fill="white"/>
</svg>
